{"glyphs":{"0":{"ha":1061,"x_min":0,"x_max":0,"o":"m 531 992 b 56 485 268 992 56 765 b 531 -21 56 206 268 -21 b 1006 485 793 -21 1006 206 b 531 992 1006 765 793 992 z m 531 73 b 337 485 424 73 337 258 b 531 898 337 713 424 898 b 724 485 637 898 724 713 b 531 73 724 258 637 73 z "},"1":{"ha":550,"x_min":0,"x_max":0,"o":"m 408 236 l 408 928 b 365 971 408 952 389 971 l 295 971 b 265 959 284 971 273 966 b 84 843 208 903 163 866 b 53 802 66 838 53 821 l 53 801 b 95 758 53 777 72 758 l 147 758 l 147 236 b 53 20 147 -14 53 66 b 85 0 53 4 64 0 b 277 10 117 0 171 10 b 469 0 383 10 437 0 b 502 20 491 0 502 4 b 408 236 502 66 408 -14 z "},"2":{"ha":951,"x_min":0,"x_max":0,"o":"m 846 329 b 809 301 829 329 814 318 b 525 94 776 187 706 94 l 319 94 l 319 139 b 890 693 319 324 890 444 b 498 992 890 907 678 992 b 101 743 268 992 101 889 b 236 604 101 682 140 604 b 374 743 347 604 385 675 b 498 908 355 851 419 908 b 629 812 561 908 629 877 b 60 245 629 618 60 512 l 60 38 b 98 0 60 17 77 0 l 814 0 b 852 34 834 0 850 14 l 884 286 b 875 316 886 296 882 307 b 846 329 868 324 857 329 z "},"3":{"ha":981,"x_min":0,"x_max":0,"o":"m 732 491 b 883 715 833 534 883 607 b 491 992 883 929 671 992 b 95 743 261 992 95 889 b 229 604 95 682 133 604 b 367 743 340 604 378 675 b 491 908 348 851 413 908 b 622 760 571 908 622 852 b 403 534 622 650 549 546 b 374 497 381 531 374 520 l 374 475 b 403 438 374 451 381 441 l 403 437 b 635 211 564 426 635 321 b 491 62 635 119 579 62 b 354 228 405 62 334 120 b 203 367 367 296 325 367 b 56 228 97 367 56 289 b 491 -21 56 82 238 -21 b 922 256 690 -21 922 42 b 732 491 922 374 861 449 z "},"4":{"ha":888,"x_min":0,"x_max":0,"o":"m 735 236 l 761 236 b 792 267 779 236 788 242 l 821 447 b 781 497 827 483 817 497 l 735 497 l 735 735 b 829 951 735 985 829 905 b 796 971 829 966 818 971 b 604 960 764 971 710 960 b 412 971 499 960 444 971 b 380 951 391 971 380 966 b 383 940 380 947 381 943 b 304 735 400 914 475 940 l 62 448 b 46 406 47 431 46 416 l 46 281 b 86 236 46 252 54 236 l 474 236 b 380 20 474 -14 380 66 b 412 0 380 4 391 0 b 604 10 444 0 499 10 b 796 0 710 10 764 0 b 829 20 818 0 829 4 b 735 236 829 66 735 -14 z m 474 497 l 203 497 b 470 808 203 497 450 787 b 474 735 473 784 474 759 z "},"5":{"ha":978,"x_min":0,"x_max":0,"o":"m 419 612 b 419 612 419 612 419 612 b 367 604 409 610 390 608 l 413 877 l 518 877 b 777 744 698 877 734 850 b 813 720 783 730 798 720 b 843 734 825 720 836 725 b 852 766 851 743 854 754 l 823 938 b 785 971 820 957 804 971 l 201 971 b 162 938 182 971 165 957 l 103 583 b 127 540 100 564 110 546 l 254 492 b 273 490 260 490 266 489 b 635 272 562 529 635 388 b 491 62 635 161 579 62 b 354 228 405 62 334 120 b 203 367 367 296 325 367 b 56 228 97 367 56 289 b 491 -21 56 82 238 -21 b 922 305 690 -21 922 64 b 419 612 922 465 753 652 z "},"6":{"ha":993,"x_min":0,"x_max":0,"o":"m 534 599 b 339 537 454 599 393 578 b 531 919 350 752 432 919 b 641 743 609 919 659 851 b 772 604 629 675 661 604 b 902 743 868 604 902 682 b 531 992 902 878 705 992 b 56 485 268 992 56 765 b 531 -21 56 206 268 -21 b 934 298 796 -21 934 140 b 534 599 934 450 804 599 z m 531 59 b 340 403 416 59 353 198 b 531 485 402 460 470 485 b 700 272 644 485 700 379 b 531 59 700 163 643 59 z "},"7":{"ha":879,"x_min":0,"x_max":0,"o":"m 847 920 b 842 955 851 931 849 944 b 811 971 835 965 823 971 l 116 971 b 78 937 97 971 80 957 l 46 685 b 55 655 45 674 48 663 b 84 642 63 647 73 642 b 121 669 101 642 116 653 b 403 877 154 783 224 877 l 570 877 l 337 236 b 164 20 246 -14 181 66 b 189 0 159 4 168 0 b 385 10 221 0 280 10 b 574 0 491 10 542 0 b 613 20 595 0 608 4 b 598 236 630 66 507 -14 z "},"8":{"ha":1058,"x_min":0,"x_max":0,"o":"m 778 491 b 952 715 883 542 952 623 b 529 992 952 868 763 992 b 106 715 296 992 106 868 b 280 491 106 623 175 542 b 54 256 145 443 54 355 b 529 -21 54 103 267 -21 b 1004 256 791 -21 1004 103 b 778 491 1004 355 914 443 z m 388 717 b 529 901 388 819 451 901 b 670 717 607 901 670 819 b 529 532 670 615 607 532 l 529 532 b 388 717 451 532 388 615 z m 529 73 b 336 257 422 73 336 156 b 497 439 336 349 405 424 b 562 439 518 443 540 443 b 722 257 653 424 722 349 b 529 73 722 156 636 73 z "},"9":{"ha":993,"x_min":0,"x_max":0,"o":"m 462 992 b 58 673 197 992 58 831 b 459 372 58 521 189 372 b 654 434 538 372 600 393 b 462 52 643 219 561 52 b 352 228 384 52 334 120 b 221 367 364 296 332 367 b 91 228 125 367 91 289 b 462 -21 91 93 288 -21 b 937 485 725 -21 937 206 b 462 992 937 765 725 992 z m 293 699 b 462 912 293 808 350 912 b 653 568 577 912 640 773 b 462 485 591 511 523 485 b 293 699 349 485 293 592 z "},"\u0000":{"ha":0,"x_min":0,"x_max":0,"o":""},"\n":{"ha":0,"x_min":0,"x_max":0,"o":""},"\r":{"ha":0,"x_min":0,"x_max":0,"o":""}," ":{"ha":546,"x_min":0,"x_max":0,"o":""},"!":{"ha":394,"x_min":0,"x_max":0,"o":"m 281 991 l 113 991 b 72 973 97 991 82 985 b 59 931 62 962 57 946 b 142 306 76 786 124 434 b 196 260 146 280 169 260 b 250 306 223 260 246 279 b 334 931 267 433 317 786 b 321 973 336 946 332 961 b 281 991 311 985 296 991 z m 235 8 b 290 141 287 29 312 89 b 157 196 268 193 209 218 b 101 63 105 175 80 115 b 235 8 123 11 183 -14 z "},"\"":{"ha":383,"x_min":0,"x_max":0,"o":"m 160 1007 b 130 1033 158 1022 145 1033 l 55 1033 b 29 1019 45 1033 35 1028 b 28 990 24 1010 24 999 l 112 822 b 139 805 117 812 128 805 l 148 805 b 170 815 156 805 164 809 b 178 838 176 822 178 830 z m 340 838 l 322 1007 b 292 1033 321 1022 308 1033 l 217 1033 b 192 1019 207 1033 197 1028 b 191 990 187 1010 186 999 l 275 822 b 301 805 280 812 290 805 l 310 805 b 332 815 319 805 327 809 b 340 838 338 822 341 830 z "},"#":{"ha":651,"x_min":0,"x_max":0,"o":"m 580 312 l 601 433 l 504 433 l 526 557 l 405 557 l 383 433 l 323 433 l 345 557 l 224 557 l 202 433 l 105 433 l 83 312 l 181 312 l 170 252 l 73 252 l 51 131 l 149 131 l 127 7 l 248 7 l 269 131 l 330 131 l 308 7 l 429 7 l 451 131 l 548 131 l 569 252 l 472 252 l 483 312 z m 351 252 l 291 252 l 301 312 l 362 312 z "},"$":{"ha":875,"x_min":0,"x_max":0,"o":"m 322 761 b 433 842 322 816 379 842 b 538 702 499 842 553 794 b 654 585 528 645 560 585 b 767 702 735 585 767 651 b 527 905 767 805 671 882 b 497 940 510 908 497 923 l 497 998 b 462 1033 497 1018 481 1033 l 418 1033 b 382 998 398 1033 382 1018 l 382 941 b 353 906 382 923 370 909 b 102 661 224 885 102 810 b 584 211 102 450 584 367 b 433 120 584 152 531 120 b 139 420 306 120 189 262 b 100 444 133 436 117 447 b 70 409 82 442 70 427 l 70 295 b 60 118 70 197 60 159 b 85 76 60 90 70 76 b 160 146 110 76 104 146 b 356 70 217 146 258 94 b 382 36 371 66 382 52 l 382 -27 b 418 -63 382 -47 398 -63 l 462 -63 b 497 -27 481 -63 497 -47 l 497 26 b 530 62 497 45 511 60 b 820 300 700 77 820 150 b 322 761 820 525 322 598 z "},"%":{"ha":803,"x_min":0,"x_max":0,"o":"m 238 668 b 409 851 332 668 409 750 b 238 1033 409 952 332 1033 b 66 851 143 1033 66 952 b 238 668 66 750 143 668 z m 238 981 b 299 851 271 981 299 923 b 238 720 299 779 271 720 b 177 851 204 720 177 779 b 238 981 177 923 204 981 z m 580 365 b 409 183 485 365 409 284 b 580 0 409 82 485 0 b 751 183 675 0 751 82 b 580 365 751 284 675 365 z m 580 52 b 519 183 546 52 519 111 b 580 313 519 255 546 313 b 641 183 614 313 641 255 b 580 52 641 111 614 52 z m 655 1065 l 28 -31 l 162 -31 l 790 1065 z "},"&":{"ha":1136,"x_min":0,"x_max":0,"o":"m 1030 589 l 822 589 b 765 532 790 589 765 564 b 822 474 765 500 790 474 l 852 474 b 791 269 844 399 824 329 b 524 493 684 320 592 397 b 755 779 641 561 755 642 b 499 992 755 898 676 992 b 229 724 367 992 229 888 b 280 523 229 667 246 597 b 44 236 157 463 44 390 b 392 -21 44 136 135 -21 b 766 70 553 -21 674 14 b 992 2 834 42 910 14 b 1042 90 1034 -3 1042 28 l 1042 142 b 992 206 1040 174 1031 198 l 992 206 b 919 222 967 210 943 216 b 1003 474 969 300 994 389 l 1030 474 b 1088 532 1062 474 1088 500 b 1030 589 1088 564 1062 589 z m 502 928 b 592 800 561 928 592 865 b 456 609 592 709 534 654 b 409 796 424 680 409 746 b 502 928 409 873 445 928 z m 489 90 b 269 270 383 90 269 132 b 355 393 269 318 304 357 b 649 127 433 285 533 194 b 489 90 603 104 550 90 z "},"'":{"ha":221,"x_min":0,"x_max":0,"o":"m 178 838 l 160 1007 b 130 1033 158 1022 145 1033 l 55 1033 b 29 1019 45 1033 35 1028 b 28 990 24 1010 24 999 l 112 822 b 139 805 117 812 128 805 l 148 805 b 170 815 156 805 164 809 b 178 838 176 822 178 830 z "},"(":{"ha":439,"x_min":0,"x_max":0,"o":"m 395 946 l 395 1020 b 60 476 210 1020 60 777 b 395 -67 60 176 210 -67 l 395 7 b 261 476 321 7 261 217 b 395 946 261 736 321 946 z "},")":{"ha":439,"x_min":0,"x_max":0,"o":"m 43 1020 l 43 946 b 177 476 117 946 177 736 b 43 7 177 217 117 7 l 43 -67 b 379 476 228 -67 379 176 b 43 1020 379 777 228 1020 z "},"*":{"ha":440,"x_min":0,"x_max":0,"o":"m 388 928 b 329 966 383 945 375 981 b 258 927 310 959 283 944 b 273 1006 267 955 273 986 b 220 1051 273 1055 237 1051 b 166 1006 202 1051 166 1055 b 181 927 166 986 172 955 b 110 966 157 944 130 959 b 51 928 64 981 57 945 b 77 864 46 912 31 879 b 157 853 97 857 127 854 b 98 798 133 835 110 815 b 116 730 70 759 101 741 b 185 735 130 720 156 695 b 220 808 197 752 210 780 b 254 735 229 780 242 752 b 324 730 283 695 310 720 b 341 798 338 741 370 759 b 282 853 329 815 306 835 b 362 864 312 854 343 857 b 388 928 409 879 394 912 z "},"+":{"ha":822,"x_min":0,"x_max":0,"o":"m 471 537 l 471 846 l 350 846 l 350 537 l 42 537 l 42 416 l 350 416 l 350 107 l 471 107 l 471 416 l 780 416 l 780 537 z "},",":{"ha":296,"x_min":0,"x_max":0,"o":"m 136 203 b 44 101 84 197 44 153 b 118 5 44 55 72 19 b 118 5 118 5 118 5 b 89 -50 133 -15 95 -35 b 99 -61 86 -56 90 -61 b 108 -59 102 -61 105 -60 b 250 95 169 -45 248 18 b 136 203 253 158 199 211 z "},"-":{"ha":615,"x_min":0,"x_max":0,"o":"m 573 416 l 573 537 l 42 537 l 42 416 z "},".":{"ha":293,"x_min":0,"x_max":0,"o":"m 186 8 b 241 141 238 29 262 89 b 107 196 219 193 160 218 b 52 63 55 175 31 115 b 186 8 74 11 133 -14 z "},"/":{"ha":688,"x_min":0,"x_max":0,"o":"m 470 980 l 69 -27 l 216 -27 l 617 980 z "},":":{"ha":310,"x_min":0,"x_max":0,"o":"m 165 517 b 256 628 221 522 262 572 b 145 720 251 684 201 725 b 53 608 89 714 48 664 b 165 517 59 552 109 511 z m 194 68 b 249 201 246 89 271 149 b 116 256 228 253 168 278 b 61 123 64 235 39 175 b 194 68 82 71 142 46 z "},";":{"ha":315,"x_min":0,"x_max":0,"o":"m 167 517 b 259 628 223 522 264 572 b 147 720 253 684 203 725 b 56 608 91 714 50 664 b 167 517 61 552 111 511 z m 145 263 b 54 161 93 257 54 213 b 127 65 54 115 82 79 b 127 65 127 65 127 65 b 98 10 143 45 105 25 b 108 -1 96 4 100 -1 b 117 1 111 -1 114 0 b 260 155 179 15 257 78 b 145 263 262 218 208 271 z "},"<":{"ha":568,"x_min":0,"x_max":0,"o":"m 516 715 l 46 486 l 46 373 l 516 144 l 516 240 l 180 429 l 516 619 z "},"=":{"ha":782,"x_min":0,"x_max":0,"o":"m 733 221 l 733 342 l 49 342 l 49 221 z m 733 611 l 733 732 l 49 732 l 49 611 z "},">":{"ha":568,"x_min":0,"x_max":0,"o":"m 51 715 l 51 619 l 387 429 l 51 240 l 51 144 l 521 373 l 521 486 z "},"?":{"ha":743,"x_min":0,"x_max":0,"o":"m 350 991 b 47 785 155 991 47 907 b 269 745 47 621 269 626 b 213 843 269 820 213 800 b 312 915 213 878 245 915 b 442 737 391 915 442 843 b 204 293 442 514 182 523 b 249 252 206 270 226 252 l 254 252 b 299 291 276 252 296 269 b 696 732 324 502 696 470 b 350 991 696 907 542 991 z m 292 8 b 347 141 344 29 369 89 b 214 196 326 193 266 218 b 159 63 162 175 137 115 b 292 8 180 11 240 -14 z "},"@":{"ha":1064,"x_min":0,"x_max":0,"o":"m 532 940 b 54 470 268 940 54 729 b 532 0 54 210 268 0 b 723 39 598 0 663 13 b 745 65 734 44 742 53 b 738 97 748 76 745 88 l 732 104 b 685 114 721 119 701 123 b 532 76 638 89 585 76 b 175 470 335 76 175 252 b 532 863 175 687 335 863 b 888 470 729 863 888 687 b 768 354 888 196 768 160 l 768 706 b 757 732 768 716 764 725 b 730 743 750 739 740 743 l 646 743 b 616 729 634 743 623 738 b 615 727 616 728 615 728 b 563 720 603 711 579 708 b 449 759 529 745 490 759 b 221 470 323 759 221 630 b 449 180 221 310 323 180 b 582 235 498 180 545 201 b 631 237 596 248 617 249 b 1009 470 806 96 1009 200 b 532 940 1009 729 795 940 z m 585 470 b 498 244 585 345 546 244 b 411 470 450 244 411 345 b 498 696 411 595 450 696 b 585 470 546 696 585 595 z "},"A":{"ha":1011,"x_min":0,"x_max":0,"o":"m 861 236 l 645 948 b 573 995 636 979 605 999 l 414 976 b 358 929 388 973 366 954 l 148 236 b -11 20 72 -14 -11 63 b 21 0 -11 5 0 0 b 127 10 53 0 66 10 b 239 0 188 10 207 0 b 277 20 260 0 277 5 b 234 184 277 64 188 -3 b 248 235 235 188 248 235 l 590 235 l 608 165 b 561 20 643 15 561 58 b 599 0 561 4 578 0 b 795 10 631 0 689 10 b 986 0 900 10 954 0 b 1021 20 1008 0 1021 4 b 861 236 1021 63 931 0 z m 277 329 l 419 799 l 561 329 z "},"B":{"ha":1025,"x_min":0,"x_max":0,"o":"m 770 494 b 938 705 872 543 938 619 b 505 971 938 852 744 971 l 436 971 b 244 960 404 971 350 960 b 52 971 138 960 84 971 b 19 951 31 971 19 966 b 113 735 19 905 113 985 l 113 236 b 19 20 113 -14 19 66 b 52 0 19 4 31 0 b 244 10 84 0 138 10 b 436 0 350 10 404 0 l 526 0 b 1001 266 788 0 1001 119 b 770 494 1001 363 908 448 z m 374 877 l 472 877 b 656 705 574 877 656 800 b 472 532 656 609 574 532 l 374 532 z m 460 94 l 374 94 l 374 438 l 460 438 b 719 266 603 438 719 361 b 460 94 719 171 603 94 z "},"C":{"ha":903,"x_min":0,"x_max":0,"o":"m 746 604 b 876 743 842 604 876 682 b 504 992 876 878 678 992 b 29 485 242 992 29 765 b 504 -21 29 206 242 -21 b 845 145 643 -21 762 44 b 783 207 895 206 818 274 b 554 52 732 110 651 52 b 311 485 388 52 311 246 b 504 919 311 725 397 919 b 614 743 583 919 633 851 b 746 604 603 675 635 604 z "},"D":{"ha":1029,"x_min":0,"x_max":0,"o":"m 526 971 l 436 971 b 244 960 404 971 350 960 b 52 971 138 960 84 971 b 19 951 31 971 19 966 b 113 735 19 905 113 985 l 113 236 b 19 20 113 -14 19 66 b 52 0 19 4 31 0 b 244 10 84 0 138 10 b 436 0 350 10 404 0 l 526 0 b 1001 485 788 0 1001 217 b 526 971 1001 753 788 971 z m 460 94 l 374 94 l 374 877 l 460 877 b 719 485 603 877 719 702 b 460 94 719 269 603 94 z "},"E":{"ha":982,"x_min":0,"x_max":0,"o":"m 905 329 b 868 301 888 329 873 318 b 584 94 834 187 764 94 l 420 94 b 374 236 368 94 374 101 l 374 431 b 413 470 374 453 392 470 l 484 470 b 700 376 734 470 654 376 b 720 408 715 376 720 387 b 709 517 720 440 709 455 b 720 625 709 578 720 593 b 700 658 720 647 715 658 b 484 564 654 658 734 564 l 413 564 b 386 575 403 564 393 568 b 374 602 378 582 374 592 l 374 735 b 420 877 374 870 368 877 l 563 877 b 847 670 743 877 813 783 b 884 642 852 653 867 642 b 913 655 895 642 906 647 b 922 685 920 663 924 674 l 891 932 b 838 971 887 955 859 971 l 52 971 b 19 951 31 971 19 966 b 113 735 19 905 113 985 l 113 236 b 19 20 113 -14 19 66 b 52 0 19 4 31 0 l 873 0 b 911 34 892 0 909 14 l 943 286 b 934 316 944 296 941 308 b 905 329 926 324 916 329 z "},"F":{"ha":933,"x_min":0,"x_max":0,"o":"m 922 685 l 891 932 b 838 971 887 955 859 971 l 52 971 b 19 951 31 971 19 966 b 113 735 19 905 113 985 l 113 236 b 19 20 113 -14 19 66 b 52 0 19 4 31 0 b 244 10 84 0 138 10 b 436 0 350 10 404 0 b 468 20 457 0 468 4 b 374 236 468 66 374 -14 l 374 470 l 484 470 b 700 376 734 470 654 376 b 720 408 715 376 720 387 b 709 517 720 440 709 455 b 720 625 709 578 720 593 b 700 658 720 647 715 658 b 484 564 654 658 734 564 l 374 564 l 374 735 b 421 877 374 870 368 877 l 563 877 b 847 670 743 877 813 783 b 884 642 852 653 867 642 b 913 655 895 642 905 647 b 922 685 920 663 923 674 z "},"G":{"ha":967,"x_min":0,"x_max":0,"o":"m 888 236 l 888 507 b 831 564 888 538 862 564 l 476 564 b 418 507 444 564 418 538 l 418 408 b 439 376 418 387 423 376 b 627 469 482 376 410 463 b 470 73 624 249 555 73 b 314 485 384 73 314 258 b 507 919 314 725 400 919 b 617 743 585 919 635 851 b 749 604 606 675 637 604 b 879 743 845 604 879 682 b 507 992 879 878 681 992 b 32 485 245 992 32 765 b 418 -21 32 206 205 -21 b 662 93 511 -21 595 22 b 799 0 691 38 739 0 l 908 0 b 940 20 929 0 940 4 b 888 236 940 66 888 0 z "},"H":{"ha":1032,"x_min":0,"x_max":0,"o":"m 1011 951 b 979 971 1011 966 1000 971 b 787 960 947 971 892 960 b 595 971 681 960 627 971 b 562 951 573 971 562 966 b 656 735 562 905 656 985 l 656 532 l 374 532 l 374 735 b 468 951 374 985 468 905 b 436 971 468 966 457 971 b 244 960 404 971 350 960 b 52 971 138 960 84 971 b 19 951 31 971 19 966 b 113 735 19 905 113 985 l 113 236 b 19 20 113 -14 19 66 b 52 0 19 4 31 0 b 244 10 84 0 138 10 b 436 0 350 10 404 0 b 468 20 457 0 468 4 b 374 236 468 66 374 -14 l 374 438 l 656 438 l 656 236 b 562 20 656 -14 562 66 b 595 0 562 4 573 0 b 787 10 627 0 681 10 b 979 0 892 10 947 0 b 1011 20 1000 0 1011 4 b 917 236 1011 66 917 -14 l 917 735 b 1011 951 917 985 1011 905 z "},"I":{"ha":489,"x_min":0,"x_max":0,"o":"m 468 951 b 436 971 468 966 457 971 b 244 960 404 971 350 960 b 52 971 138 960 84 971 b 19 951 31 971 19 966 b 113 735 19 905 113 985 l 113 236 b 19 20 113 -14 19 66 b 52 0 19 4 31 0 b 244 10 84 0 138 10 b 436 0 350 10 404 0 b 468 20 457 0 468 4 b 374 236 468 66 374 -14 l 374 735 b 468 951 374 985 468 905 z "},"J":{"ha":792,"x_min":0,"x_max":0,"o":"m 748 971 b 556 960 716 971 662 960 b 364 971 451 960 396 971 b 332 951 343 971 332 966 b 426 735 332 905 426 985 l 426 423 b 317 52 426 184 402 52 b 250 215 245 52 213 95 b 135 367 274 295 225 367 b 8 228 59 367 8 303 b 306 -21 8 93 167 -21 b 687 374 516 -21 687 94 l 687 735 b 781 951 687 985 781 905 b 748 971 781 966 770 971 z "},"K":{"ha":1029,"x_min":0,"x_max":0,"o":"m 834 236 l 634 652 l 704 735 b 990 951 915 985 990 914 b 962 971 990 968 983 971 b 847 960 930 971 908 960 b 724 971 786 960 756 971 b 680 951 703 971 680 968 b 604 735 680 905 815 985 l 374 463 l 374 735 b 468 951 374 985 468 905 b 436 971 468 966 457 971 b 244 960 404 971 350 960 b 52 971 138 960 84 971 b 19 951 31 971 19 966 b 113 735 19 905 113 985 l 113 236 b 19 20 113 -14 19 66 b 52 0 19 4 31 0 b 244 10 84 0 138 10 b 436 0 350 10 404 0 b 468 20 457 0 468 4 b 374 236 468 66 374 -14 l 374 344 l 461 447 l 562 236 b 562 20 676 0 562 63 b 601 0 562 4 580 0 b 807 10 633 0 701 10 b 993 0 913 10 961 0 b 1032 20 1015 0 1032 4 b 834 236 1032 63 946 0 z "},"L":{"ha":871,"x_min":0,"x_max":0,"o":"m 502 94 l 421 94 b 374 236 368 94 374 101 l 374 735 b 468 951 374 985 468 905 b 436 971 468 966 457 971 b 244 960 404 971 350 960 b 52 971 138 960 84 971 b 19 951 31 971 19 966 b 113 735 19 905 113 985 l 113 236 b 19 20 113 -14 19 66 b 52 0 19 4 31 0 l 791 0 b 829 34 810 0 826 14 l 861 286 b 851 316 862 296 859 307 b 823 329 844 324 834 329 b 786 301 806 329 791 318 b 502 94 752 187 682 94 z "},"M":{"ha":1136,"x_min":0,"x_max":0,"o":"m 1022 236 l 1022 735 b 1116 951 1022 985 1116 905 b 1083 971 1116 966 1104 971 l 801 971 b 750 931 777 971 756 955 l 567 272 l 385 931 b 334 971 379 955 358 971 l 52 971 b 19 951 31 971 19 966 b 113 735 19 905 113 985 l 113 236 b 19 20 113 -14 19 66 b 52 0 19 4 31 0 b 160 10 84 0 99 10 b 269 0 222 10 237 0 b 301 20 290 0 301 4 b 207 236 301 66 207 -14 l 207 631 l 371 39 b 423 0 377 16 399 0 l 545 0 b 597 39 569 0 591 16 l 761 631 l 761 240 l 760 240 b 761 236 761 239 761 237 b 667 20 761 -14 667 66 b 699 0 667 4 678 0 b 891 10 731 0 785 10 b 1083 0 997 10 1051 0 b 1116 20 1104 0 1116 4 b 1022 236 1116 66 1022 -14 z "},"N":{"ha":1026,"x_min":0,"x_max":0,"o":"m 979 971 b 870 960 947 971 932 960 b 762 971 809 960 794 971 b 729 951 740 971 729 966 b 823 735 729 905 823 985 l 823 338 l 269 954 b 231 971 259 965 245 971 l 52 971 b 19 951 31 971 19 966 b 113 735 19 905 113 985 l 113 236 b 19 20 113 -14 19 66 b 52 0 19 4 31 0 b 160 10 84 0 99 10 b 269 0 222 10 237 0 b 301 20 290 0 301 4 b 207 236 301 66 207 -14 l 207 632 l 761 17 b 800 0 771 6 785 0 l 866 0 b 917 52 894 0 917 23 l 917 735 b 1011 951 917 985 1011 905 b 979 971 1011 966 1000 971 z "},"O":{"ha":1008,"x_min":0,"x_max":0,"o":"m 504 992 b 29 485 242 992 29 765 b 504 -21 29 206 242 -21 b 979 485 766 -21 979 206 b 504 992 979 765 766 992 z m 504 73 b 311 485 397 73 311 258 b 504 898 311 713 397 898 b 697 485 611 898 697 713 b 504 73 697 258 611 73 z "},"P":{"ha":949,"x_min":0,"x_max":0,"o":"m 505 971 l 436 971 b 244 960 404 971 350 960 b 52 971 138 960 84 971 b 19 951 31 971 19 966 b 113 735 19 905 113 985 l 113 236 b 19 20 113 -14 19 66 b 52 0 19 4 31 0 b 244 10 84 0 138 10 b 436 0 350 10 404 0 b 468 20 457 0 468 4 b 374 236 468 66 374 -14 l 374 438 l 505 438 b 938 705 744 438 938 558 b 505 971 938 852 744 971 z m 472 532 l 374 532 l 374 877 l 472 877 b 656 705 574 877 656 800 b 472 532 656 609 574 532 z "},"Q":{"ha":1014,"x_min":0,"x_max":0,"o":"m 940 -154 l 940 -51 b 891 1 940 -20 927 -1 b 706 26 829 4 767 12 b 982 485 869 106 982 281 b 507 992 982 765 769 992 b 32 485 245 992 32 765 b 213 87 32 324 103 180 b 117 -12 154 59 117 15 b 142 -33 117 -21 131 -33 b 293 5 171 -33 190 5 b 882 -204 478 5 579 -183 b 940 -154 921 -206 939 -182 z m 530 76 b 435 102 497 86 466 95 b 314 485 364 163 314 312 b 507 898 314 713 400 898 b 700 485 614 898 700 713 b 530 76 700 274 626 100 z "},"R":{"ha":1018,"x_min":0,"x_max":0,"o":"m 917 215 b 734 487 917 342 844 436 b 917 705 845 536 917 615 b 505 971 917 847 734 964 l 505 971 l 436 971 b 244 960 404 971 350 960 b 52 971 138 960 84 971 b 19 951 31 971 19 966 b 113 735 19 905 113 985 l 113 236 b 19 20 113 -14 19 66 b 52 0 19 4 31 0 b 244 10 84 0 138 10 b 436 0 350 10 404 0 b 468 20 457 0 468 4 b 374 236 468 66 374 -14 l 374 438 l 515 438 b 656 236 593 438 656 348 b 562 20 656 -14 562 66 b 595 0 562 4 573 0 b 787 10 627 0 681 10 b 979 0 892 10 947 0 b 1011 20 1000 0 1011 4 b 917 215 1011 66 917 0 z m 451 532 l 374 532 l 374 877 l 451 877 b 635 705 553 877 635 800 b 451 532 635 610 553 532 z "},"S":{"ha":968,"x_min":0,"x_max":0,"o":"m 350 812 b 481 908 350 877 418 908 b 606 743 560 908 624 851 b 744 604 594 675 633 604 b 878 743 840 604 878 682 b 481 992 878 889 712 992 b 89 693 301 992 89 907 b 661 160 89 444 661 344 b 481 52 661 90 598 52 b 132 408 331 52 192 221 b 93 437 127 425 111 437 b 51 395 69 437 51 418 l 51 260 b 39 49 51 143 39 98 b 69 0 39 17 51 0 b 158 83 99 0 92 83 b 510 -21 245 83 301 -21 b 941 266 756 -21 941 63 b 350 812 941 532 350 618 z "},"T":{"ha":1021,"x_min":0,"x_max":0,"o":"m 1010 685 l 979 932 b 926 971 975 955 948 971 l 94 971 b 41 932 73 971 45 955 l 10 685 b 19 655 9 674 12 663 b 48 642 27 647 37 642 b 85 670 65 642 80 653 b 348 876 118 779 183 869 b 379 735 379 874 379 854 l 379 236 b 285 20 379 -14 285 66 b 318 0 285 4 296 0 b 510 10 350 0 404 10 b 702 0 616 10 670 0 b 734 20 723 0 734 4 b 640 236 734 66 640 -14 l 640 735 b 672 876 640 855 640 874 b 935 670 837 869 903 779 b 972 642 940 653 955 642 b 1001 655 983 642 994 647 b 1010 685 1008 663 1012 674 z "},"U":{"ha":1022,"x_min":0,"x_max":0,"o":"m 980 971 b 787 960 947 971 893 960 b 595 971 682 960 627 971 b 563 951 574 971 563 966 b 657 735 563 905 657 985 l 657 403 b 511 63 657 176 592 63 b 365 403 430 63 365 176 l 365 735 b 459 951 365 985 459 905 b 426 971 459 966 447 971 b 234 960 394 971 340 960 b 42 971 128 960 74 971 b 10 951 21 971 10 966 b 104 735 10 905 104 985 l 104 403 b 511 -21 104 63 286 -21 b 918 403 736 -21 918 63 l 918 735 b 1012 951 918 985 1012 905 b 979 971 1012 966 1001 971 z "},"V":{"ha":1011,"x_min":0,"x_max":0,"o":"m 989 971 b 883 960 957 971 944 960 b 771 971 822 960 804 971 b 733 951 750 971 733 966 b 762 735 733 903 837 985 l 738 658 l 591 172 l 421 735 b 449 951 348 971 449 908 b 411 971 449 967 432 971 b 216 960 379 971 321 960 b 24 971 110 960 56 971 b -11 951 2 971 -11 967 b 149 735 -11 908 79 971 l 352 64 b 439 0 364 26 399 0 l 572 0 b 659 64 612 0 647 26 l 862 735 b 1021 951 938 985 1021 908 b 989 971 1021 966 1011 971 z "},"W":{"ha":1233,"x_min":0,"x_max":0,"o":"m 1209 971 b 1104 960 1177 971 1165 960 b 992 971 1043 960 1024 971 b 955 951 970 971 955 966 b 1002 735 955 905 1056 985 l 896 242 l 790 735 b 852 939 744 943 831 918 b 856 951 855 942 856 945 b 823 971 856 966 844 971 b 717 960 791 971 779 960 b 605 971 656 960 637 971 b 568 951 584 971 568 966 b 616 735 568 905 669 985 l 509 242 l 403 735 b 451 951 351 971 451 911 b 414 971 451 967 435 971 b 218 960 382 971 324 960 b 27 971 112 960 59 971 b -10 951 5 971 -10 967 b 132 735 -10 908 82 971 l 281 41 b 332 0 286 17 308 0 l 515 0 b 566 41 540 0 561 17 l 617 277 l 668 41 b 719 0 673 17 694 0 l 902 0 b 953 41 927 0 948 17 l 1103 735 b 1243 951 1156 985 1243 910 b 1209 971 1243 966 1231 971 z "},"X":{"ha":1026,"x_min":0,"x_max":0,"o":"m 810 236 l 605 563 l 726 735 b 990 951 901 985 990 907 b 965 971 990 968 984 971 b 826 960 926 971 901 960 b 696 971 752 960 735 971 b 643 951 670 971 643 970 b 612 735 643 903 787 985 l 552 649 l 497 735 b 498 951 352 985 498 900 b 454 971 498 969 475 971 b 246 960 422 971 352 960 b 33 971 139 960 65 971 b -1 951 11 971 -1 964 b 195 735 -1 903 50 985 l 392 421 l 263 236 b -1 20 88 -14 -1 63 b 33 0 -1 1 7 0 b 162 10 71 0 88 10 b 293 0 237 10 254 0 b 346 20 319 0 346 0 b 377 236 346 75 202 -14 l 446 335 l 508 236 b 508 20 650 0 508 73 b 552 0 508 4 530 0 b 791 10 584 0 685 10 b 998 0 898 10 966 0 b 1030 20 1020 0 1030 4 b 810 236 1030 73 956 -14 z "},"Y":{"ha":946,"x_min":0,"x_max":0,"o":"m 930 971 b 822 960 898 971 883 960 b 712 971 761 960 744 971 b 670 951 691 971 670 967 b 661 735 670 903 781 985 l 559 523 l 457 735 b 448 951 343 971 448 910 b 406 971 448 967 427 971 b 212 960 374 971 318 960 b 19 971 107 960 51 971 b -13 951 -3 971 -13 967 b 186 735 -13 914 74 971 l 342 408 l 342 236 b 248 20 342 -14 248 66 b 281 0 248 4 260 0 b 473 10 313 0 367 10 b 665 0 579 10 633 0 b 697 20 686 0 697 4 b 603 236 697 66 603 -14 l 603 406 l 761 735 b 958 951 881 985 958 908 b 930 971 958 966 951 971 z "},"Z":{"ha":1056,"x_min":0,"x_max":0,"o":"m 671 94 l 556 94 b 526 236 493 94 439 94 l 839 735 b 1036 951 984 985 1036 903 b 1002 971 1036 964 1023 971 l 142 971 b 104 937 123 971 107 956 l 72 685 b 82 655 71 674 74 663 b 110 642 89 647 99 642 b 147 670 127 642 142 653 b 431 877 181 783 251 877 l 520 877 b 537 735 572 877 620 877 l 224 236 b 4 20 79 -14 4 73 b 36 0 4 4 14 0 l 960 0 b 998 34 979 0 996 14 l 1030 286 b 1021 316 1031 296 1028 308 b 992 329 1013 324 1003 329 b 955 301 975 329 960 318 b 671 94 921 187 851 94 z "},"[":{"ha":386,"x_min":0,"x_max":0,"o":"m 338 933 l 338 1020 l 69 1020 l 69 -67 l 338 -67 l 338 20 l 231 9 l 231 944 z "},"\\":{"ha":688,"x_min":0,"x_max":0,"o":"m 216 980 l 69 980 l 470 -27 l 617 -27 z "},"]":{"ha":386,"x_min":0,"x_max":0,"o":"m 47 1020 l 47 933 l 155 944 l 155 9 l 47 20 l 47 -67 l 316 -67 l 316 1020 z "},"^":{"ha":471,"x_min":0,"x_max":0,"o":"m 421 792 l 323 1021 b 288 1047 316 1037 303 1047 l 182 1047 b 147 1021 167 1047 154 1037 l 49 792 b 84 720 35 759 54 720 l 105 720 b 135 737 117 720 128 727 l 205 861 b 265 861 221 883 249 883 l 335 737 b 365 720 342 727 353 720 l 386 720 b 421 792 416 720 435 759 z "},"_":{"ha":615,"x_min":0,"x_max":0,"o":"m 573 0 l 573 121 l 42 121 l 42 0 z "},"`":{"ha":179,"x_min":0,"x_max":0,"o":"m 144 941 l 116 1073 b 83 1100 112 1089 99 1100 l 12 1100 b -17 1083 0 1100 -11 1093 b -16 1049 -22 1072 -22 1060 l 64 917 b 92 901 70 907 81 901 l 111 901 b 137 913 121 901 131 906 b 144 941 143 921 146 931 z "},"a":{"ha":865,"x_min":0,"x_max":0,"o":"m 755 236 l 755 485 b 765 709 755 641 765 677 b 739 741 765 730 755 741 b 635 658 703 741 722 658 b 335 741 504 658 499 741 b 35 360 169 741 35 571 b 335 -21 35 150 169 -21 b 541 84 415 -21 488 19 b 635 0 562 34 593 0 b 849 62 671 0 849 27 b 755 236 849 118 755 44 z m 515 360 b 400 63 515 196 464 63 b 285 360 337 63 285 196 b 400 658 285 524 337 658 b 456 620 424 658 444 637 b 515 360 491 569 515 472 z "},"b":{"ha":822,"x_min":0,"x_max":0,"o":"m 486 741 b 306 665 419 741 356 713 l 306 1022 b 237 1033 306 1066 258 1043 b 5 992 169 1002 112 992 b -28 972 -17 992 -28 987 b 66 756 -28 926 66 1006 l 66 236 b 56 11 66 80 56 43 b 82 -21 56 -10 66 -21 b 186 63 118 -21 100 63 b 486 -21 283 63 322 -21 b 786 360 652 -21 786 150 b 486 741 786 571 652 741 z m 421 63 b 306 360 358 63 306 196 b 421 658 306 524 358 658 b 536 360 485 658 536 524 b 421 63 536 196 485 63 z "},"c":{"ha":746,"x_min":0,"x_max":0,"o":"m 680 329 b 649 302 665 329 651 317 b 469 84 632 177 570 84 b 284 381 362 84 284 180 b 404 679 284 557 326 679 b 482 548 454 679 496 629 b 592 444 474 497 510 444 b 691 548 663 444 691 502 b 404 741 691 658 574 741 b 33 360 176 741 33 571 b 385 -21 33 150 191 -21 b 712 294 580 -21 687 115 b 704 318 713 303 710 312 b 680 329 698 325 689 329 z "},"d":{"ha":865,"x_min":0,"x_max":0,"o":"m 755 236 l 755 1022 b 685 1033 755 1066 706 1043 b 453 992 617 1002 561 992 b 421 972 432 992 421 987 b 515 756 421 926 515 1006 l 515 665 b 335 741 465 713 402 741 b 35 360 169 741 35 571 b 335 -21 35 150 169 -21 b 541 84 415 -21 488 19 b 635 0 562 34 593 0 b 849 62 671 0 849 27 b 755 236 849 118 755 44 z m 515 360 b 400 63 515 196 464 63 b 285 360 337 63 285 196 b 400 658 285 524 337 658 b 515 360 464 658 515 524 z "},"e":{"ha":747,"x_min":0,"x_max":0,"o":"m 680 329 b 649 302 665 329 651 317 b 469 84 632 177 570 84 b 284 381 362 84 284 180 l 664 381 b 709 426 704 381 711 406 b 372 741 689 612 546 741 b 33 360 185 741 33 571 b 385 -21 33 150 191 -21 b 712 294 580 -21 687 115 b 704 318 713 303 710 312 b 680 329 698 325 689 329 z m 393 679 b 501 444 446 679 490 585 l 286 444 b 393 679 296 585 340 679 z "},"f":{"ha":556,"x_min":0,"x_max":0,"o":"m 411 1065 b 114 720 228 1065 124 928 l 51 720 b 19 689 33 720 19 706 b 51 658 19 672 33 658 l 113 658 l 113 236 b 19 20 113 -14 19 66 b 52 0 19 4 31 0 b 233 10 84 0 128 10 b 415 0 339 10 383 0 b 447 20 436 0 447 4 b 353 236 447 66 353 -14 l 353 658 l 522 658 b 553 689 539 658 553 672 b 522 720 553 706 539 720 l 354 720 b 417 1002 355 888 364 1002 b 459 854 455 1002 476 938 b 553 763 448 796 500 763 b 656 864 605 763 656 794 b 411 1065 656 972 554 1065 z "},"g":{"ha":818,"x_min":0,"x_max":0,"o":"m 209 136 b 381 167 209 165 267 167 b 720 454 568 167 720 296 b 616 661 720 536 680 609 b 727 597 660 655 671 597 b 804 673 769 597 804 627 b 687 762 804 719 757 762 b 546 705 637 762 590 739 b 381 741 494 729 438 741 b 42 454 194 741 42 613 b 198 213 42 353 104 264 b 42 54 100 190 42 142 b 89 -51 42 5 60 -28 b 0 -165 45 -55 0 -94 b 371 -397 0 -318 146 -397 b 783 -121 632 -397 783 -310 b 209 136 783 209 209 55 z m 381 679 b 470 454 430 679 470 578 b 381 230 470 330 430 230 b 292 454 332 230 292 330 b 381 679 292 578 332 679 z m 360 -334 b 167 -124 236 -334 167 -257 b 157 -83 167 -108 163 -94 b 553 -194 308 -125 553 -69 b 360 -334 553 -281 472 -334 z "},"h":{"ha":940,"x_min":0,"x_max":0,"o":"m 837 236 l 837 424 b 532 741 837 634 700 741 b 347 663 462 741 398 712 l 347 1022 b 277 1033 347 1066 298 1043 b 45 992 209 1002 152 992 b 13 972 24 992 13 987 b 106 756 13 926 106 1006 l 106 236 b 13 20 106 -14 13 66 b 45 0 13 4 24 0 b 227 10 77 0 121 10 b 408 0 332 10 376 0 b 441 20 429 0 441 4 b 347 236 441 66 347 -14 l 347 360 b 476 658 347 524 399 658 b 597 382 555 658 597 546 l 597 236 b 503 20 597 -14 503 66 b 536 0 503 4 514 0 b 717 10 568 0 611 10 b 899 0 823 10 867 0 b 931 20 920 0 931 4 b 837 236 931 66 837 -14 z "},"i":{"ha":463,"x_min":0,"x_max":0,"o":"m 216 762 b 350 878 290 762 350 814 b 216 995 350 943 290 995 b 82 878 142 995 82 943 b 216 762 82 814 142 762 z m 355 236 l 355 709 b 285 720 355 753 306 730 b 53 678 217 689 160 678 b 21 658 32 678 21 674 b 115 443 21 613 115 693 l 115 236 b 21 20 115 -14 21 66 b 53 0 21 4 32 0 b 235 10 85 0 129 10 b 416 0 341 10 384 0 b 449 20 438 0 449 4 b 355 236 449 66 355 -14 z "},"j":{"ha":413,"x_min":0,"x_max":0,"o":"m 209 762 b 343 878 283 762 343 814 b 209 995 343 943 283 995 b 76 878 136 995 76 943 b 209 762 76 814 136 762 z m 279 720 b 47 679 211 689 154 679 b 14 658 25 679 14 674 b 108 443 14 613 108 693 l 108 31 b 44 -282 108 -154 101 -282 b 3 -134 7 -282 -14 -218 b -91 -42 14 -76 -38 -42 b -194 -144 -143 -42 -194 -74 b 51 -344 -194 -252 -92 -344 b 348 0 242 -344 348 -225 l 348 709 b 279 720 348 753 300 730 z "},"k":{"ha":922,"x_min":0,"x_max":0,"o":"m 816 236 l 816 277 b 565 531 816 423 744 517 b 868 700 799 724 868 651 b 837 720 868 720 845 720 b 676 710 826 720 714 710 b 537 720 637 710 549 720 b 503 700 530 720 503 724 b 424 485 503 641 701 735 l 347 415 l 347 1022 b 277 1033 347 1066 298 1043 b 45 992 209 1002 152 992 b 13 972 24 992 13 987 b 106 756 13 926 106 1006 l 106 236 b 13 20 106 -14 13 66 b 45 0 13 4 24 0 b 227 10 77 0 121 10 b 408 0 332 10 376 0 b 441 20 429 0 441 4 b 347 236 441 66 347 -14 l 347 336 l 471 448 b 576 236 558 442 576 386 b 482 20 576 -14 482 66 b 515 0 482 4 493 0 b 696 10 547 0 590 10 b 878 0 802 10 846 0 b 910 20 899 0 910 4 b 816 236 910 66 816 -14 z "},"l":{"ha":454,"x_min":0,"x_max":0,"o":"m 347 236 l 347 1022 b 277 1033 347 1066 298 1043 b 45 992 209 1002 152 992 b 13 972 24 992 13 987 b 106 756 13 926 106 1006 l 106 236 b 13 20 106 -14 13 66 b 45 0 13 4 24 0 b 227 10 77 0 121 10 b 408 0 332 10 376 0 b 441 20 429 0 441 4 b 347 236 441 66 347 -14 z "},"m":{"ha":1376,"x_min":0,"x_max":0,"o":"m 1274 236 l 1274 424 b 984 741 1274 634 1144 741 b 767 613 898 741 820 692 b 525 741 715 698 626 741 b 355 669 461 741 403 714 l 355 709 b 285 720 355 753 306 730 b 53 679 217 689 160 679 b 21 658 32 679 21 674 b 115 443 21 613 115 693 l 115 233 l 115 233 b 21 20 114 -14 21 65 b 53 0 21 4 32 0 b 235 10 85 0 129 10 b 417 0 341 10 385 0 b 449 20 438 0 449 4 b 355 236 449 66 355 -14 l 355 360 b 472 658 355 524 402 658 b 574 382 544 658 574 546 l 574 236 b 480 20 574 -14 480 66 b 513 0 480 4 491 0 b 694 10 545 0 588 10 b 876 0 800 10 844 0 b 908 20 897 0 908 4 b 814 236 908 66 814 -14 l 814 360 b 931 658 814 524 861 658 b 1033 382 1003 658 1033 546 l 1033 236 b 940 20 1033 -14 940 66 b 972 0 940 4 951 0 b 1154 10 1004 0 1048 10 b 1335 0 1259 10 1303 0 b 1368 20 1356 0 1368 4 b 1274 236 1368 66 1274 -14 z "},"n":{"ha":949,"x_min":0,"x_max":0,"o":"m 846 236 l 846 424 b 540 741 846 634 709 741 b 355 663 470 741 406 712 l 355 709 b 285 720 355 753 306 730 b 53 678 217 689 160 678 b 21 658 32 678 21 674 b 115 443 21 613 115 693 l 115 236 b 21 20 115 -14 21 66 b 53 0 21 4 32 0 b 235 10 85 0 129 10 b 416 0 341 10 384 0 b 449 20 438 0 449 4 b 355 236 449 66 355 -14 l 355 360 b 484 658 355 524 407 658 b 605 382 564 658 605 546 l 605 236 b 511 20 605 -14 511 66 b 544 0 511 4 523 0 b 725 10 576 0 620 10 b 907 0 831 10 875 0 b 939 20 928 0 939 4 b 846 236 939 66 846 -14 z "},"o":{"ha":785,"x_min":0,"x_max":0,"o":"m 392 741 b 32 360 193 741 32 571 b 392 -21 32 150 193 -21 b 752 360 591 -21 752 150 b 392 741 752 571 591 741 z m 392 42 b 282 360 332 42 282 184 b 392 679 282 536 332 679 b 502 360 453 679 502 536 b 392 42 502 184 453 42 z "},"p":{"ha":864,"x_min":0,"x_max":0,"o":"m 528 741 b 348 665 460 741 398 713 l 348 709 b 278 720 348 753 299 730 b 46 678 210 689 153 678 b 14 658 25 678 14 674 b 108 443 14 613 108 693 l 108 -109 b 14 -324 108 -359 14 -279 b 46 -344 14 -340 25 -344 b 228 -334 78 -344 122 -334 b 410 -344 334 -334 378 -344 b 442 -324 431 -344 442 -340 b 348 -109 442 -279 348 -359 l 348 55 b 528 -21 398 7 460 -21 b 828 360 694 -21 828 150 b 528 741 828 571 694 741 z m 463 63 b 348 360 399 63 348 196 l 348 360 b 463 658 348 524 399 658 b 578 360 526 658 578 524 b 463 63 578 196 526 63 z "},"q":{"ha":822,"x_min":0,"x_max":0,"o":"m 755 -109 l 755 -61 l 755 -61 b 755 -36 755 -53 755 -45 l 755 485 b 765 709 755 641 765 677 b 739 741 765 730 755 741 b 635 658 703 741 722 658 b 335 741 504 658 499 741 b 35 360 169 741 35 571 b 335 -21 35 150 169 -21 b 515 55 402 -21 465 7 l 515 -109 b 421 -324 515 -359 421 -279 b 453 -344 421 -340 432 -344 b 635 -334 485 -344 529 -334 b 817 -344 741 -334 785 -344 b 849 -324 838 -344 849 -340 b 755 -109 849 -279 755 -359 z m 400 63 b 285 360 337 63 285 196 b 400 658 285 524 337 658 b 515 360 464 658 515 524 b 400 63 515 196 464 63 z "},"r":{"ha":799,"x_min":0,"x_max":0,"o":"m 527 741 b 355 677 454 741 398 716 l 355 709 b 285 720 355 753 306 730 b 53 679 217 689 160 679 b 21 658 32 679 21 674 b 115 443 21 613 115 693 l 115 236 b 21 20 115 -14 21 66 b 53 0 21 4 32 0 b 235 10 85 0 129 10 b 416 0 341 10 384 0 b 449 20 438 0 449 4 b 355 236 449 66 355 -14 l 355 350 b 496 668 355 526 400 668 b 574 548 546 668 588 629 b 684 444 566 497 602 444 b 783 548 755 444 783 502 b 527 741 783 658 697 741 z "},"s":{"ha":753,"x_min":0,"x_max":0,"o":"m 284 601 b 375 679 284 650 327 679 b 465 548 434 679 479 629 b 577 444 456 497 493 444 b 678 548 649 444 678 502 b 375 741 678 658 548 741 b 72 497 239 741 72 658 b 486 115 72 288 486 243 b 375 42 486 63 435 42 b 112 305 255 42 146 177 b 82 329 108 319 96 329 b 60 320 74 329 66 326 b 51 298 54 314 51 306 l 51 196 b 42 37 51 108 42 74 b 64 0 42 13 51 0 b 132 63 87 0 82 63 b 396 -21 197 63 229 -21 b 720 203 581 -21 720 42 b 284 601 720 419 284 469 z "},"t":{"ha":601,"x_min":0,"x_max":0,"o":"m 543 329 b 513 298 527 329 513 315 b 427 99 513 159 477 99 b 344 277 378 99 344 138 l 344 658 l 512 658 b 543 689 529 658 543 672 b 512 720 543 706 529 720 l 344 720 l 344 940 b 312 971 344 957 330 971 l 304 971 b 274 950 291 971 279 963 b 36 722 237 846 147 738 b 10 691 21 720 10 707 l 10 689 b 41 658 10 672 24 658 l 104 658 l 104 298 b 339 -21 104 87 209 -21 b 573 298 468 -21 573 87 b 543 329 573 315 560 329 z "},"u":{"ha":946,"x_min":0,"x_max":0,"o":"m 836 236 l 836 709 b 766 720 836 753 787 730 b 534 678 698 689 641 678 b 502 658 513 678 502 674 b 596 443 502 613 596 693 l 596 357 b 466 63 595 194 543 63 b 345 338 387 63 345 174 l 345 709 b 276 720 345 753 297 730 b 43 679 208 689 151 679 b 11 658 22 679 11 674 b 105 443 11 613 105 693 l 105 297 b 410 -21 105 86 242 -21 b 622 85 492 -21 567 19 b 716 0 642 35 674 0 b 930 62 752 0 930 27 b 836 236 930 118 836 44 z "},"v":{"ha":883,"x_min":0,"x_max":0,"o":"m 850 720 b 728 710 838 720 766 710 b 582 720 689 710 593 720 b 541 700 574 720 541 720 b 602 485 541 652 693 735 l 496 194 l 390 485 b 427 700 299 735 427 649 b 387 720 427 717 408 720 b 188 710 355 720 294 710 b 45 720 82 710 77 720 b -1 700 23 720 -1 717 b 150 485 -1 653 59 735 l 311 41 b 371 0 321 17 344 0 l 469 0 b 528 41 496 0 519 17 l 690 485 b 886 700 781 735 886 652 b 850 720 886 718 865 720 z "},"w":{"ha":1186,"x_min":0,"x_max":0,"o":"m 1150 720 b 1031 710 1139 720 1070 710 b 888 720 992 710 900 720 b 850 700 870 720 850 720 b 929 485 850 651 998 735 l 841 166 l 753 485 b 808 700 684 735 808 649 b 770 720 808 718 785 720 b 651 710 759 720 690 710 b 508 720 612 710 520 720 b 470 700 490 720 470 720 b 549 485 470 651 618 735 l 461 166 l 373 485 b 428 700 304 735 428 649 b 390 720 428 720 411 720 b 190 710 358 720 296 710 b 48 720 85 710 80 720 b 0 700 26 720 0 717 b 133 485 0 654 64 735 l 256 38 b 306 0 262 16 283 0 l 457 0 b 507 38 480 0 501 16 l 572 271 l 636 38 b 686 0 642 16 663 0 l 837 0 b 887 38 860 0 881 16 l 1010 485 b 1188 700 1080 735 1188 652 b 1150 720 1188 718 1165 720 z "},"x":{"ha":871,"x_min":0,"x_max":0,"o":"m 651 236 l 537 412 l 592 485 b 862 700 779 735 862 657 b 828 720 862 721 841 720 b 712 710 817 720 748 710 b 566 720 677 710 577 720 b 531 700 550 720 531 723 b 496 485 531 650 684 735 l 494 481 l 491 485 b 468 700 331 735 468 649 b 412 720 468 722 433 720 b 227 710 380 720 333 710 b 80 720 121 710 112 720 b 40 700 59 720 40 718 b 251 485 40 657 91 735 l 351 328 l 281 233 b 4 20 93 -17 4 63 b 38 0 4 0 25 0 b 154 10 49 0 118 10 b 300 0 189 10 289 0 b 335 20 316 0 335 -3 b 360 211 335 69 197 -12 b 395 259 360 212 380 239 l 410 236 b 434 20 571 -14 434 72 b 489 0 434 -1 468 0 b 675 10 521 0 569 10 b 821 0 781 10 789 0 b 862 20 843 0 862 2 b 651 236 862 63 811 -14 z "},"y":{"ha":842,"x_min":0,"x_max":0,"o":"m 808 720 b 686 710 797 720 725 710 b 540 720 647 710 551 720 b 500 700 532 720 500 720 b 560 485 500 652 651 735 l 475 251 l 390 485 b 427 700 299 735 427 649 b 387 720 427 717 408 720 b 188 710 355 720 294 710 b 45 720 82 710 77 720 b -1 700 23 720 -1 717 b 150 485 -1 653 59 735 l 354 -75 b 196 -271 286 -246 257 -271 b 154 -133 128 -271 137 -218 b 70 -42 165 -76 124 -42 b -22 -144 18 -42 -22 -74 b 202 -344 -22 -252 59 -344 b 480 25 357 -344 428 -123 l 648 485 b 844 700 739 735 844 652 b 808 720 844 718 823 720 z "},"z":{"ha":831,"x_min":0,"x_max":0,"o":"m 612 485 b 802 700 772 735 802 657 b 762 720 802 718 783 720 b 636 710 730 720 742 710 b 336 741 522 710 483 741 b 40 548 162 741 40 658 b 141 444 40 502 69 444 b 253 548 225 444 262 497 b 336 679 239 629 277 679 l 372 679 b 372 485 421 679 492 679 l 213 236 b 19 20 52 -14 19 63 b 60 0 19 2 39 0 l 759 0 b 781 37 772 0 781 13 b 773 196 781 74 773 108 l 773 298 b 742 329 773 315 759 329 b 711 305 727 329 715 319 b 469 63 672 130 612 63 l 432 63 l 432 63 b 453 236 388 63 345 63 z "},"{":{"ha":400,"x_min":0,"x_max":0,"o":"m 340 946 l 340 1020 b 97 534 -135 1020 279 534 l 58 537 l 58 416 l 97 419 b 340 -67 279 419 -135 -67 l 340 7 b 260 476 136 7 427 381 l 260 476 b 340 946 427 572 136 946 z "},"|":{"ha":274,"x_min":0,"x_max":0,"o":"m 204 -67 l 204 1020 l 69 1020 l 69 -67 z "},"}":{"ha":400,"x_min":0,"x_max":0,"o":"m 302 534 b 60 1020 121 534 535 1020 l 60 946 b 140 476 264 946 -28 572 l 140 476 b 60 7 -28 381 264 7 l 60 -67 b 302 419 535 -67 121 419 l 342 416 l 342 537 z "},"~":{"ha":656,"x_min":0,"x_max":0,"o":"m 611 496 l 604 527 b 590 546 602 535 597 542 b 567 549 583 550 575 551 b 341 580 482 523 411 566 b 52 503 230 602 145 591 b 44 475 45 496 42 485 l 51 444 b 65 425 52 436 58 429 b 88 422 72 421 80 420 b 313 391 173 448 244 405 b 602 468 425 369 509 380 b 611 496 610 475 613 486 z "}," ":{"ha":546,"x_min":0,"x_max":0,"o":""},"¡":{"ha":394,"x_min":0,"x_max":0,"o":"m 334 40 b 251 664 317 184 269 537 b 197 711 247 691 225 711 b 144 665 170 711 147 691 b 59 40 126 537 76 185 b 72 -2 57 25 62 9 b 113 -21 82 -14 97 -21 l 281 -21 b 321 -2 296 -21 311 -14 b 334 40 331 9 336 25 z m 237 775 b 292 908 289 796 313 856 b 158 963 270 960 210 985 b 103 830 106 941 82 882 b 237 775 125 778 184 753 z "},"¢":{"ha":871,"x_min":0,"x_max":0,"o":"m 779 450 b 744 420 762 450 747 437 b 543 175 726 280 655 175 b 335 509 423 175 335 284 b 469 842 335 706 382 842 b 557 696 526 842 572 787 b 680 579 548 639 588 579 b 791 696 760 579 791 644 b 523 910 791 807 684 894 b 492 945 506 911 492 926 l 492 999 b 482 1023 492 1008 488 1017 b 457 1033 475 1030 466 1033 l 412 1033 b 387 1023 403 1033 394 1030 b 377 999 381 1017 377 1008 l 377 931 b 351 897 377 915 366 901 b 54 485 166 848 54 682 b 351 72 54 286 180 119 b 377 38 366 68 377 54 l 377 -28 b 412 -63 377 -47 393 -63 l 457 -63 b 492 -28 476 -63 492 -47 l 492 30 b 520 64 492 47 504 62 b 814 411 693 94 790 234 b 806 439 815 421 812 431 b 779 450 799 446 789 450 z "},"£":{"ha":907,"x_min":0,"x_max":0,"o":"m 482 94 l 395 94 b 517 308 473 145 517 219 b 516 342 517 319 517 331 l 626 342 l 626 456 l 486 456 b 319 779 430 578 319 643 b 450 908 319 869 387 908 b 575 743 529 908 593 851 b 713 604 563 675 602 604 b 847 743 809 604 847 682 b 450 992 847 889 681 992 b 58 693 270 992 58 907 b 174 456 58 582 117 518 l 121 456 l 121 342 l 262 342 b 282 253 275 314 282 283 b 79 94 282 142 195 94 l 79 0 l 805 0 l 847 329 l 774 329 b 482 94 743 203 677 94 z "},"¥":{"ha":1110,"x_min":0,"x_max":0,"o":"m 1012 971 b 904 960 980 971 965 960 b 794 971 843 960 826 971 b 752 951 773 971 752 967 b 743 735 752 903 863 985 l 641 523 l 539 735 b 530 951 425 971 530 910 b 488 971 530 967 509 971 b 294 960 456 971 400 960 b 101 971 189 960 133 971 b 69 951 79 971 69 967 b 268 735 69 914 156 971 l 401 456 l 268 456 l 268 342 l 424 342 l 424 284 l 268 284 l 268 169 l 422 169 b 330 20 406 0 330 61 b 363 0 330 4 342 0 b 555 10 395 0 449 10 b 747 0 661 10 715 0 b 779 20 768 0 779 4 b 688 169 779 61 703 0 l 842 169 l 842 284 l 685 284 l 685 342 l 842 342 l 842 456 l 709 456 l 843 735 b 1040 951 963 985 1040 907 b 1012 971 1040 966 1033 971 z "},"¦":{"ha":263,"x_min":0,"x_max":0,"o":"m 185 544 l 198 1020 l 64 1020 l 77 544 z m 77 409 l 64 -67 l 198 -67 l 185 409 z "},"§":{"ha":801,"x_min":0,"x_max":0,"o":"m 647 327 b 644 334 645 328 643 331 b 648 340 644 336 645 339 b 740 498 705 373 740 424 b 304 863 740 696 304 742 b 394 934 304 908 346 934 b 485 815 453 934 498 889 b 596 719 476 768 513 719 b 697 815 668 719 697 772 b 394 992 697 915 567 992 b 91 767 258 992 91 915 b 182 628 91 709 129 665 b 186 622 185 627 186 624 b 183 615 186 619 185 617 b 91 454 129 578 91 524 b 506 104 91 262 506 221 b 394 37 506 56 455 37 b 128 294 269 37 156 172 b 120 300 127 297 123 300 l 78 300 b 70 292 74 300 70 296 l 70 178 b 61 32 70 97 61 66 b 84 -2 61 10 70 -2 b 151 56 106 -2 101 56 b 415 -21 216 56 249 -21 b 740 184 601 -21 740 37 b 647 327 740 243 701 289 z m 506 416 b 502 409 506 413 504 411 b 494 409 500 408 497 408 b 304 549 395 455 304 494 l 304 550 b 308 556 304 552 305 555 b 315 557 310 558 313 558 b 506 418 413 512 506 473 b 506 416 506 417 506 416 z "},"©":{"ha":1551,"x_min":0,"x_max":0,"o":"m 958 580 b 1061 690 1034 580 1061 642 b 765 889 1061 798 904 889 b 386 485 556 889 386 708 b 765 82 386 262 556 82 b 1036 214 876 82 970 134 b 987 263 1076 263 1015 317 b 804 140 947 186 882 140 b 611 485 672 140 611 295 b 765 831 611 676 680 831 b 853 690 827 831 867 777 b 958 580 843 637 869 580 z m 775 1143 b 57 485 379 1143 57 849 b 775 -172 57 122 379 -172 b 1494 485 1172 -172 1494 122 b 775 1143 1494 849 1172 1143 z m 775 -83 b 235 485 477 -83 235 171 b 775 1054 235 799 477 1054 b 1316 485 1074 1054 1316 799 b 775 -83 1316 171 1074 -83 z "},"«":{"ha":858,"x_min":0,"x_max":0,"o":"m 807 675 l 337 446 l 337 333 l 807 104 l 807 200 l 471 389 l 807 578 z m 516 578 l 516 675 l 46 446 l 46 333 l 516 104 l 516 200 l 180 389 z "},"­":{"ha":0,"x_min":0,"x_max":0,"o":""},"®":{"ha":822,"x_min":0,"x_max":0,"o":"m 411 1143 b 51 814 212 1143 51 996 b 411 485 51 633 212 485 b 770 814 609 485 770 633 b 411 1143 770 996 609 1143 z m 140 814 b 213 1008 140 886 166 955 b 247 922 224 1005 247 1003 l 247 706 b 213 620 247 626 224 624 b 140 814 166 674 140 743 z m 411 530 b 228 604 340 530 276 558 b 303 608 243 605 266 608 b 387 604 349 608 373 604 b 401 613 396 604 401 606 b 360 706 401 632 360 598 l 360 794 l 421 794 b 482 706 455 794 482 755 b 441 613 482 598 441 632 b 455 604 441 606 446 604 b 539 608 469 604 493 608 b 594 606 563 608 581 607 b 411 530 546 559 482 530 z m 360 835 l 360 984 l 393 984 b 473 909 437 984 473 950 b 393 835 473 868 437 835 z m 615 628 b 595 697 605 635 595 652 b 516 815 595 752 564 793 b 595 909 564 836 595 870 b 417 1024 595 971 516 1022 l 416 1025 l 387 1025 b 303 1020 373 1025 349 1020 b 228 1024 266 1020 243 1023 b 411 1099 276 1070 340 1099 b 681 814 560 1099 681 971 b 615 628 681 746 658 680 z "},"°":{"ha":433,"x_min":0,"x_max":0,"o":"m 216 1051 b 47 882 123 1051 47 975 b 216 713 47 789 123 713 b 385 882 309 713 385 789 b 335 1001 385 927 367 970 b 216 1051 304 1033 261 1051 z m 216 793 b 127 882 167 793 127 833 b 216 971 127 931 167 971 b 305 882 265 971 305 931 b 279 819 305 859 295 836 b 216 793 262 803 240 793 z "},"·":{"ha":293,"x_min":0,"x_max":0,"o":"m 186 295 b 241 428 238 317 262 376 b 107 483 219 480 160 505 b 52 350 55 462 31 402 b 186 295 74 298 133 273 z "},"»":{"ha":858,"x_min":0,"x_max":0,"o":"m 342 675 l 342 578 l 678 389 l 342 200 l 342 104 l 812 333 l 812 446 z m 521 446 l 51 675 l 51 578 l 387 389 l 51 200 l 51 104 l 521 333 z "},"¿":{"ha":743,"x_min":0,"x_max":0,"o":"m 473 226 b 529 128 473 151 529 171 b 430 56 529 93 498 56 b 300 234 351 56 300 128 b 538 678 300 457 560 448 b 493 719 536 701 516 719 l 489 719 b 443 679 466 719 446 702 b 46 239 418 468 46 501 b 392 -21 46 63 200 -21 b 695 186 587 -21 695 64 b 473 226 695 350 473 345 z m 528 775 b 583 908 580 796 605 856 b 450 963 562 960 502 985 b 395 830 398 941 373 882 b 528 775 416 778 476 753 z "},"À":{"ha":1011,"x_min":0,"x_max":0,"o":"m 518 1110 b 544 1095 523 1101 533 1095 l 567 1095 b 591 1107 576 1095 585 1100 b 597 1133 597 1114 599 1124 l 550 1269 b 520 1294 547 1283 534 1294 l 443 1294 b 416 1278 432 1294 422 1288 b 417 1247 411 1268 411 1256 z m 861 237 l 645 950 b 573 997 636 981 605 1001 l 414 977 b 358 931 388 974 366 956 l 148 237 b -11 22 72 -13 -11 64 b 21 1 -11 7 0 1 b 127 12 53 1 66 12 b 239 1 188 12 207 1 b 277 22 260 1 277 6 b 234 185 277 65 188 -1 b 248 236 235 189 248 236 l 590 236 l 608 166 b 561 22 643 17 561 59 b 599 1 561 5 578 1 b 795 12 631 1 689 12 b 986 1 900 12 954 1 b 1021 22 1008 1 1021 5 b 861 237 1021 64 931 1 z m 277 330 l 419 800 l 561 330 z "},"Á":{"ha":1011,"x_min":0,"x_max":0,"o":"m 464 1095 l 487 1095 b 513 1110 497 1095 508 1101 l 614 1247 b 615 1278 620 1256 620 1268 b 588 1294 609 1288 599 1294 l 511 1294 b 481 1269 497 1294 484 1283 l 434 1133 b 440 1107 432 1124 434 1114 b 464 1095 446 1100 455 1095 z m 861 237 l 645 950 b 573 997 636 981 605 1001 l 414 977 b 358 931 388 974 366 956 l 148 237 b -11 22 72 -13 -11 64 b 21 1 -11 7 0 1 b 127 12 53 1 66 12 b 239 1 188 12 207 1 b 277 22 260 1 277 6 b 234 185 277 65 188 -1 b 248 236 235 189 248 236 l 590 236 l 608 166 b 561 22 643 17 561 59 b 599 1 561 5 578 1 b 795 12 631 1 689 12 b 986 1 900 12 954 1 b 1021 22 1008 1 1021 5 b 861 237 1021 64 931 1 z m 277 330 l 419 800 l 561 330 z "},"Â":{"ha":1011,"x_min":0,"x_max":0,"o":"m 392 1095 l 408 1095 b 430 1106 417 1095 425 1099 l 483 1166 b 505 1176 488 1173 496 1176 b 527 1166 514 1176 522 1173 l 580 1106 b 602 1095 585 1099 593 1095 l 618 1095 b 643 1110 628 1095 638 1101 b 644 1139 649 1118 649 1129 l 571 1278 b 545 1294 566 1288 556 1294 l 465 1294 b 439 1278 454 1294 444 1288 l 366 1139 b 367 1110 361 1129 361 1118 b 392 1095 372 1101 382 1095 z m 861 237 l 645 950 b 573 997 636 981 605 1001 l 414 977 b 358 931 388 974 366 956 l 148 237 b -11 22 72 -13 -11 64 b 21 1 -11 7 0 1 b 127 12 53 1 66 12 b 239 1 188 12 207 1 b 277 22 260 1 277 6 b 234 185 277 65 188 -1 b 248 236 235 189 248 236 l 590 236 l 608 166 b 561 22 643 17 561 59 b 599 1 561 5 578 1 b 794 12 631 1 689 12 b 986 1 900 12 954 1 b 1021 22 1008 1 1021 5 b 861 237 1021 64 931 1 z m 277 330 l 419 800 l 561 330 z "},"Ã":{"ha":1011,"x_min":0,"x_max":0,"o":"m 330 1165 b 337 1154 330 1160 333 1156 b 351 1153 341 1152 346 1151 b 496 1133 405 1171 451 1142 b 681 1184 567 1118 622 1126 b 686 1200 685 1188 687 1194 l 680 1224 b 673 1235 680 1229 677 1233 b 659 1236 669 1237 664 1238 b 514 1256 605 1218 559 1247 b 329 1205 443 1270 388 1263 b 324 1189 325 1201 323 1195 z m 861 237 l 645 950 b 573 997 636 981 605 1001 l 414 977 b 358 931 388 974 366 956 l 148 237 b -11 22 72 -13 -11 64 b 21 1 -11 7 0 1 b 127 12 53 1 66 12 b 239 1 188 12 207 1 b 277 22 260 1 277 6 b 234 185 277 65 188 -1 b 248 236 235 189 248 236 l 590 236 l 608 166 b 561 22 643 17 561 59 b 599 1 561 5 578 1 b 795 12 631 1 689 12 b 987 1 900 12 954 1 b 1021 22 1008 1 1021 5 b 861 237 1021 64 931 1 z m 277 330 l 419 800 l 561 330 z "},"Ä":{"ha":1011,"x_min":0,"x_max":0,"o":"m 372 1106 b 474 1194 428 1106 474 1145 b 372 1283 474 1243 428 1283 b 270 1194 315 1283 270 1243 b 372 1106 270 1145 315 1106 z m 638 1106 b 740 1194 695 1106 740 1145 b 638 1283 740 1243 695 1283 b 536 1194 582 1283 536 1243 b 638 1106 536 1145 582 1106 z m 861 237 l 645 950 b 573 997 636 981 605 1001 l 414 977 b 358 931 388 974 366 956 l 148 237 b -11 22 72 -13 -11 64 b 21 1 -11 7 0 1 b 127 12 53 1 66 12 b 239 1 188 12 207 1 b 277 22 260 1 277 6 b 234 185 277 65 188 -1 b 248 236 235 189 248 236 l 590 236 l 608 166 b 561 22 643 17 561 59 b 599 1 561 5 578 1 b 795 12 631 1 689 12 b 986 1 900 12 954 1 b 1021 22 1008 1 1021 5 b 861 237 1021 64 931 1 z m 277 330 l 419 800 l 561 330 z "},"Å":{"ha":1011,"x_min":0,"x_max":0,"o":"m 505 1054 b 646 1195 583 1054 646 1117 b 505 1335 646 1272 583 1335 b 364 1195 427 1335 364 1272 b 505 1054 364 1117 427 1054 z m 505 1257 b 568 1195 540 1257 568 1229 b 505 1132 568 1160 540 1132 b 442 1195 470 1132 442 1160 b 505 1257 442 1229 470 1257 z m 861 237 l 645 950 b 573 997 636 981 605 1001 l 414 977 b 358 931 388 974 366 956 l 148 237 b -11 22 72 -13 -11 64 b 21 1 -11 7 0 1 b 127 12 53 1 66 12 b 239 1 188 12 207 1 b 277 22 260 1 277 6 b 234 185 277 65 188 -1 b 248 236 235 189 248 236 l 590 236 l 608 166 b 561 22 643 17 561 59 b 599 1 561 5 578 1 b 795 12 631 1 689 12 b 986 1 900 12 954 1 b 1021 22 1008 1 1021 5 b 861 237 1021 64 931 1 z m 277 330 l 419 800 l 561 330 z "},"Æ":{"ha":1500,"x_min":0,"x_max":0,"o":"m 1424 334 b 1387 307 1407 334 1392 323 b 1103 99 1353 193 1283 99 l 939 99 b 893 241 887 99 893 106 l 893 437 b 932 475 893 458 910 475 l 1003 475 b 1218 381 1253 475 1173 381 b 1239 414 1234 381 1239 392 b 1228 522 1239 446 1228 461 b 1239 631 1228 584 1239 599 b 1218 663 1239 652 1234 663 b 1003 569 1173 663 1253 569 l 932 569 b 893 608 910 569 893 586 l 893 741 b 939 882 893 876 887 882 l 1082 882 b 1366 675 1262 882 1332 789 b 1403 647 1371 659 1386 647 b 1432 660 1414 647 1424 652 b 1441 691 1439 669 1442 680 l 1410 937 b 1357 976 1406 961 1378 976 l 571 976 b 539 962 552 976 541 973 b 538 962 539 962 538 962 l 185 237 b -12 22 65 -13 -12 65 b 20 1 -12 6 -1 1 b 124 12 52 1 62 12 b 254 1 185 12 222 1 b 296 22 276 1 296 6 b 305 236 296 67 186 -13 l 632 236 b 538 26 631 -8 538 71 b 571 5 538 10 549 5 l 1392 5 b 1430 39 1411 5 1427 20 l 1462 291 b 1453 321 1463 302 1460 313 b 1424 334 1445 330 1435 334 z m 632 330 l 351 330 l 617 875 b 632 741 626 846 632 804 z "},"Ç":{"ha":903,"x_min":0,"x_max":0,"o":"m 783 208 b 554 54 732 111 651 54 b 311 487 388 54 311 248 b 504 920 311 726 397 920 b 614 744 583 920 633 852 b 746 605 603 677 635 605 b 876 744 842 605 876 683 b 504 993 876 879 678 993 b 29 487 242 993 29 766 b 436 -14 29 232 206 21 l 465 -86 b 500 -114 470 -100 478 -115 l 500 -114 b 512 -114 504 -114 508 -114 b 575 -180 546 -118 572 -146 b 556 -233 576 -199 569 -218 b 504 -255 542 -247 524 -255 b 458 -238 487 -255 471 -249 l 458 -238 b 396 -240 437 -219 413 -231 l 395 -240 b 381 -284 378 -249 369 -268 b 514 -343 413 -324 463 -346 b 663 -194 594 -338 658 -274 b 563 -37 667 -126 626 -63 l 563 -37 l 571 -14 b 845 146 682 3 775 62 b 783 208 895 207 818 276 z "},"È":{"ha":982,"x_min":0,"x_max":0,"o":"m 494 1110 b 521 1095 500 1101 510 1095 l 543 1095 b 567 1107 553 1095 561 1100 b 574 1133 573 1114 575 1124 l 526 1269 b 496 1294 523 1283 511 1294 l 420 1294 b 393 1278 408 1294 398 1288 b 393 1247 387 1268 387 1256 z m 905 330 b 868 303 888 330 873 319 b 584 95 834 189 764 95 l 420 95 b 374 237 368 95 374 102 l 374 433 b 386 460 374 443 378 453 b 413 471 393 467 403 471 l 484 471 b 700 377 734 471 654 377 b 720 410 715 377 720 388 b 709 518 720 442 709 457 b 720 627 709 579 720 595 b 700 659 720 648 715 659 b 484 565 654 659 734 565 l 413 565 b 374 604 392 565 374 582 l 374 736 b 420 878 374 872 368 878 l 563 878 b 847 671 743 878 813 785 b 884 643 852 655 867 643 b 913 656 895 643 906 648 b 922 687 920 665 924 676 l 891 933 b 838 972 887 957 859 972 l 52 972 b 19 952 31 972 19 968 b 113 736 19 907 113 987 l 113 237 b 19 22 113 -13 19 67 b 52 1 19 6 31 1 l 873 1 b 911 35 892 1 909 16 l 943 287 b 934 317 944 298 941 309 b 905 330 926 325 916 330 z "},"É":{"ha":982,"x_min":0,"x_max":0,"o":"m 420 1095 l 442 1095 b 469 1110 453 1095 463 1101 l 570 1247 b 570 1278 575 1256 576 1268 b 543 1294 565 1288 554 1294 l 467 1294 b 436 1269 452 1294 439 1283 l 389 1133 b 395 1107 387 1124 390 1114 b 420 1095 401 1100 410 1095 z m 905 330 b 868 303 888 330 873 319 b 584 95 834 189 764 95 l 420 95 b 374 237 368 95 374 102 l 374 433 b 386 460 374 443 378 453 b 413 471 393 467 403 471 l 484 471 b 700 377 734 471 654 377 b 720 410 715 377 720 388 b 709 518 720 442 709 457 b 720 627 709 579 720 595 b 700 659 720 648 715 659 b 484 565 654 659 734 565 l 413 565 b 374 604 392 565 374 582 l 374 736 b 421 878 374 872 368 878 l 563 878 b 847 671 743 878 813 785 b 892 644 853 652 872 640 b 922 687 912 648 925 667 l 891 933 b 838 972 887 957 859 972 l 52 972 b 19 952 31 972 19 968 b 113 736 19 907 113 987 l 113 237 b 19 22 113 -13 19 67 b 52 1 19 6 31 1 l 873 1 b 911 35 892 1 909 16 l 943 287 b 934 317 944 298 941 309 b 905 330 926 325 916 330 z "},"Ê":{"ha":982,"x_min":0,"x_max":0,"o":"m 368 1095 l 384 1095 b 407 1106 393 1095 401 1099 l 459 1166 b 481 1176 465 1173 473 1176 b 504 1166 490 1176 498 1173 l 556 1106 b 578 1095 562 1099 570 1095 l 594 1095 b 620 1110 605 1095 614 1101 b 620 1139 625 1118 625 1129 l 547 1278 b 521 1294 542 1288 532 1294 l 442 1294 b 416 1278 431 1294 421 1288 l 342 1139 b 343 1110 338 1129 338 1118 b 368 1095 349 1101 358 1095 z m 905 330 b 868 303 888 330 873 319 b 584 95 834 189 764 95 l 420 95 b 374 237 368 95 374 102 l 374 433 b 413 471 374 454 392 471 l 484 471 b 700 377 734 471 654 377 b 720 410 715 377 720 388 b 709 518 720 442 709 457 b 720 627 709 579 720 595 b 700 659 720 648 715 659 b 484 565 654 659 734 565 l 413 565 b 374 604 392 565 374 582 l 374 736 b 420 878 374 872 368 878 l 563 878 b 847 671 743 878 813 785 b 892 644 853 652 872 640 b 922 687 911 648 925 667 l 891 933 b 838 972 887 957 859 972 l 52 972 b 19 952 31 972 19 968 b 113 736 19 907 113 987 l 113 237 b 19 22 113 -13 19 67 b 52 1 19 6 31 1 l 873 1 b 911 35 892 1 909 16 l 943 287 b 934 317 944 298 941 309 b 905 330 926 325 916 330 z "},"Ë":{"ha":982,"x_min":0,"x_max":0,"o":"m 615 1108 b 717 1197 671 1108 717 1148 b 615 1285 717 1246 671 1285 b 513 1197 558 1285 513 1246 b 615 1108 513 1148 558 1108 z m 348 1108 b 450 1197 404 1108 450 1148 b 348 1285 450 1246 404 1285 b 246 1197 292 1285 246 1246 b 348 1108 246 1148 292 1108 z m 905 330 b 868 303 888 330 873 319 b 584 95 834 189 764 95 l 420 95 b 374 237 368 95 374 102 l 374 433 b 413 471 374 454 392 471 l 484 471 b 700 377 734 471 654 377 b 720 410 715 377 720 388 b 709 518 720 442 709 457 b 720 627 709 579 720 595 b 700 659 720 648 715 659 b 484 565 654 659 734 565 l 413 565 b 374 604 392 565 374 582 l 374 736 b 420 878 374 872 368 878 l 563 878 b 847 671 743 878 813 785 b 892 644 853 652 872 640 b 922 687 911 648 925 667 l 891 933 b 838 972 887 957 859 972 l 52 972 b 19 952 31 972 19 968 b 113 736 19 907 113 987 l 113 237 b 19 22 113 -13 19 67 b 52 1 19 6 31 1 l 873 1 b 911 35 892 1 909 16 l 943 287 b 934 317 944 298 941 309 b 905 330 926 325 916 330 z "},"Ì":{"ha":489,"x_min":0,"x_max":0,"o":"m 374 237 l 374 737 b 468 952 374 987 468 907 b 436 972 468 968 457 972 b 244 962 404 972 350 962 b 52 972 138 962 84 972 b 19 952 31 972 19 968 b 113 737 19 907 113 987 l 113 237 b 19 22 113 -13 19 67 b 52 1 19 6 31 1 b 244 12 84 1 138 12 b 436 1 350 12 404 1 b 468 22 457 1 468 6 b 374 237 468 67 374 -13 z m 257 1110 b 283 1095 262 1101 272 1095 l 306 1095 b 330 1107 315 1095 324 1100 b 336 1133 336 1114 338 1124 l 289 1269 b 258 1294 286 1283 273 1294 l 182 1294 b 155 1278 171 1294 161 1288 b 156 1247 150 1268 150 1256 z "},"Í":{"ha":489,"x_min":0,"x_max":0,"o":"m 374 237 l 374 737 b 468 952 374 987 468 907 b 436 972 468 968 457 972 b 244 962 404 972 350 962 b 52 972 138 962 84 972 b 19 952 31 972 19 968 b 113 737 19 907 113 987 l 113 237 b 19 22 113 -13 19 67 b 52 1 19 6 31 1 b 244 12 84 1 138 12 b 436 1 350 12 404 1 b 468 22 457 1 468 6 b 374 237 468 67 374 -13 z m 182 1095 l 205 1095 b 231 1110 216 1095 226 1101 l 332 1247 b 333 1278 338 1256 338 1268 b 306 1294 327 1288 317 1294 l 229 1294 b 199 1269 215 1294 202 1283 l 152 1133 b 158 1107 150 1124 152 1114 b 182 1095 164 1100 173 1095 z "},"Î":{"ha":489,"x_min":0,"x_max":0,"o":"m 374 237 l 374 737 b 468 952 374 987 468 907 b 436 972 468 968 457 972 b 244 962 404 972 350 962 b 52 972 138 962 84 972 b 19 952 31 972 19 968 b 113 737 19 907 113 987 l 113 237 b 19 22 113 -13 19 67 b 52 1 19 6 31 1 b 244 12 84 1 138 12 b 436 1 350 12 404 1 b 468 22 457 1 468 6 b 374 237 468 67 374 -13 z m 131 1095 l 147 1095 b 169 1106 155 1095 164 1099 l 222 1166 b 244 1176 227 1173 235 1176 b 266 1166 252 1176 261 1173 l 319 1106 b 341 1095 324 1099 332 1095 l 357 1095 b 382 1110 367 1095 377 1101 b 383 1139 387 1118 388 1129 l 310 1278 b 283 1294 304 1288 294 1294 l 204 1294 b 178 1278 193 1294 183 1288 l 105 1139 b 106 1110 100 1129 100 1118 b 131 1095 111 1101 121 1095 z "},"Ï":{"ha":488,"x_min":0,"x_max":0,"o":"m 468 952 b 436 972 468 968 457 972 b 244 962 404 972 350 962 b 52 972 138 962 84 972 b 19 952 30 972 19 968 b 113 736 19 907 113 987 l 113 237 b 19 22 113 -13 19 67 b 52 1 19 6 30 1 b 244 12 84 1 138 12 b 436 1 350 12 404 1 b 468 22 457 1 468 6 b 374 237 468 67 374 -13 l 374 736 b 468 952 374 987 468 907 z m 110 1108 b 212 1197 167 1108 212 1148 b 110 1285 212 1246 167 1285 b 8 1197 54 1285 8 1246 b 110 1108 8 1148 54 1108 z m 377 1108 b 479 1197 433 1108 479 1148 b 377 1285 479 1246 433 1285 b 275 1197 321 1285 275 1246 b 377 1108 275 1148 321 1108 z "},"Ñ":{"ha":1026,"x_min":0,"x_max":0,"o":"m 340 1165 b 348 1154 341 1160 344 1156 b 361 1153 352 1152 357 1151 b 506 1133 416 1171 462 1142 b 692 1184 578 1118 632 1126 b 696 1200 696 1188 697 1194 l 691 1224 b 683 1235 690 1229 687 1233 b 670 1236 679 1237 674 1238 b 524 1256 615 1218 569 1247 b 339 1205 453 1270 399 1263 b 334 1189 335 1201 333 1195 z m 979 972 b 870 962 947 972 932 962 b 762 972 809 962 794 972 b 729 952 740 972 729 968 b 823 736 729 907 823 987 l 823 340 l 269 955 b 231 972 259 966 245 972 l 52 972 b 19 952 31 972 19 968 b 113 736 19 907 113 987 l 113 237 b 19 22 113 -13 19 67 b 52 1 19 6 31 1 b 160 12 84 1 99 12 b 269 1 222 12 237 1 b 301 22 290 1 301 6 b 207 237 301 67 207 -13 l 207 634 l 761 18 b 800 1 771 8 785 1 l 866 1 b 917 53 894 1 917 24 l 917 736 b 1011 952 917 987 1011 907 b 979 972 1011 968 1000 972 z "},"Ò":{"ha":1008,"x_min":0,"x_max":0,"o":"m 504 993 b 29 487 242 993 29 766 b 504 -20 29 207 242 -20 b 979 487 766 -20 979 207 b 504 993 979 766 766 993 z m 504 74 b 311 487 397 74 311 259 b 504 899 311 715 397 899 b 697 487 611 899 697 715 b 504 74 697 259 611 74 z m 517 1110 b 543 1095 522 1101 533 1095 l 566 1095 b 590 1107 575 1095 584 1100 b 596 1133 596 1114 598 1124 l 549 1269 b 519 1294 546 1283 533 1294 l 442 1294 b 415 1278 431 1294 421 1288 b 416 1247 410 1268 410 1256 z "},"Ó":{"ha":1008,"x_min":0,"x_max":0,"o":"m 504 993 b 29 487 242 993 29 766 b 504 -20 29 207 242 -20 b 979 487 766 -20 979 207 b 504 993 979 766 766 993 z m 504 74 b 311 487 397 74 311 259 b 504 899 311 715 397 899 b 697 487 611 899 697 715 b 504 74 697 259 611 74 z m 442 1095 l 465 1095 b 491 1110 476 1095 486 1101 l 592 1247 b 593 1278 598 1256 598 1268 b 566 1294 587 1288 577 1294 l 490 1294 b 459 1269 475 1294 462 1283 l 412 1133 b 418 1107 410 1124 412 1114 b 442 1095 424 1100 433 1095 z "},"Ô":{"ha":1008,"x_min":0,"x_max":0,"o":"m 504 993 b 29 487 242 993 29 766 b 504 -20 29 207 242 -20 b 979 487 766 -20 979 207 b 504 993 979 766 766 993 z m 504 74 b 311 487 397 74 311 259 b 504 899 311 715 397 899 b 697 487 611 899 697 715 b 504 74 697 259 611 74 z m 391 1095 l 407 1095 b 429 1106 416 1095 424 1099 l 482 1166 b 504 1176 487 1173 496 1176 b 526 1166 513 1176 521 1173 l 579 1106 b 601 1095 584 1099 593 1095 l 617 1095 b 642 1110 627 1095 637 1101 b 643 1139 648 1118 648 1129 l 570 1278 b 544 1294 565 1288 555 1294 l 465 1294 b 438 1278 454 1294 444 1288 l 365 1139 b 366 1110 360 1129 361 1118 b 391 1095 371 1101 381 1095 z "},"Õ":{"ha":1008,"x_min":0,"x_max":0,"o":"m 504 993 b 29 487 242 993 29 766 b 504 -20 29 207 242 -20 b 979 487 766 -20 979 207 b 504 993 979 766 766 993 z m 504 74 b 311 487 397 74 311 259 b 504 899 311 715 397 899 b 697 487 611 899 697 715 b 504 74 697 259 611 74 z m 329 1165 b 337 1154 330 1160 332 1156 b 350 1153 341 1152 345 1151 b 495 1133 405 1171 451 1142 b 680 1184 567 1118 621 1126 b 685 1200 684 1188 686 1194 l 680 1224 b 672 1235 679 1229 676 1233 b 658 1236 668 1237 663 1238 b 513 1256 604 1218 558 1247 b 328 1205 442 1270 388 1263 b 323 1189 324 1201 322 1195 z "},"Ö":{"ha":1008,"x_min":0,"x_max":0,"o":"m 504 993 b 29 487 242 993 29 766 b 504 -20 29 207 242 -20 b 979 487 766 -20 979 207 b 504 993 979 766 766 993 z m 504 74 b 311 487 397 74 311 259 b 504 899 311 715 397 899 b 697 487 611 899 697 715 b 504 74 697 259 611 74 z m 371 1108 b 473 1197 427 1108 473 1148 b 371 1285 473 1246 427 1285 b 269 1197 314 1285 269 1246 b 371 1108 269 1148 314 1108 z m 637 1108 b 740 1197 694 1108 740 1148 b 637 1285 740 1246 694 1285 b 535 1197 581 1285 535 1246 b 637 1108 535 1148 581 1108 z "},"×":{"ha":706,"x_min":0,"x_max":0,"o":"m 656 695 l 571 780 l 352 562 l 134 780 l 49 695 l 267 476 l 49 258 l 134 173 l 352 391 l 571 173 l 656 258 l 438 476 z "},"Ø":{"ha":1008,"x_min":0,"x_max":0,"o":"m 777 901 l 843 1035 l 705 1035 l 669 962 b 504 993 617 982 561 993 b 29 487 242 993 29 766 b 231 73 29 316 109 164 l 165 -61 l 303 -61 l 339 12 b 504 -20 392 -9 448 -20 b 979 487 766 -20 979 207 b 777 901 979 658 899 809 z m 336 285 b 311 487 320 345 311 414 b 504 899 311 715 397 899 b 607 836 542 899 577 876 z m 504 74 b 401 138 466 74 431 98 l 673 689 b 697 487 688 629 697 560 b 504 74 697 259 611 74 z "},"Ù":{"ha":1022,"x_min":0,"x_max":0,"o":"m 980 972 b 787 962 947 972 893 962 b 595 972 682 962 627 972 b 563 952 574 972 563 968 b 657 736 563 907 657 987 l 657 404 b 511 64 657 177 592 64 b 365 404 430 64 365 177 l 365 736 b 459 952 365 987 459 907 b 426 972 459 968 447 972 b 234 962 394 972 340 962 b 42 972 128 962 74 972 b 10 952 21 972 10 968 b 104 736 10 907 104 987 l 104 404 b 511 -19 104 64 286 -19 b 918 404 736 -19 918 64 l 918 736 b 1012 952 918 987 1012 907 b 980 972 1012 968 1001 972 z m 523 1110 b 550 1095 529 1101 539 1095 l 573 1095 b 597 1107 582 1095 591 1100 b 603 1133 603 1114 605 1124 l 556 1269 b 525 1294 553 1283 540 1294 l 449 1294 b 422 1278 438 1294 428 1288 b 423 1247 417 1268 417 1256 z "},"Ú":{"ha":1022,"x_min":0,"x_max":0,"o":"m 980 972 b 787 962 947 972 893 962 b 595 972 682 962 627 972 b 563 952 574 972 563 968 b 657 736 563 907 657 987 l 657 404 b 511 64 657 177 592 64 b 365 404 430 64 365 177 l 365 736 b 459 952 365 987 459 907 b 426 972 459 968 447 972 b 234 962 394 972 340 962 b 42 972 128 962 74 972 b 10 952 21 972 10 968 b 104 736 10 907 104 987 l 104 404 b 511 -19 104 64 286 -19 b 918 404 736 -19 918 64 l 918 736 b 1012 952 918 987 1012 907 b 979 972 1012 968 1001 972 z m 449 1095 l 472 1095 b 498 1110 482 1095 492 1101 l 599 1247 b 600 1278 605 1256 605 1268 b 573 1294 594 1288 584 1294 l 496 1294 b 466 1269 482 1294 469 1283 l 419 1133 b 425 1107 417 1124 419 1114 b 449 1095 431 1100 440 1095 z "},"Û":{"ha":1022,"x_min":0,"x_max":0,"o":"m 980 972 b 787 962 947 972 893 962 b 595 972 682 962 627 972 b 563 952 574 972 563 968 b 657 736 563 907 657 987 l 657 404 b 511 64 657 177 592 64 b 365 404 430 64 365 177 l 365 736 b 459 952 365 987 459 907 b 426 972 459 968 447 972 b 234 962 394 972 340 962 b 42 972 128 962 74 972 b 10 952 21 972 10 968 b 104 736 10 907 104 987 l 104 404 b 511 -19 104 64 286 -19 b 918 404 736 -19 918 64 l 918 736 b 1012 952 918 987 1012 907 b 979 972 1012 968 1001 972 z m 398 1095 l 414 1095 b 436 1106 422 1095 430 1099 l 488 1166 b 511 1176 494 1173 502 1176 b 533 1166 519 1176 528 1173 l 585 1106 b 608 1095 591 1099 599 1095 l 624 1095 b 649 1110 634 1095 644 1101 b 650 1139 654 1118 655 1129 l 576 1278 b 550 1294 571 1288 561 1294 l 471 1294 b 445 1278 460 1294 450 1288 l 372 1139 b 373 1110 367 1129 367 1118 b 398 1095 378 1101 388 1095 z "},"Ü":{"ha":1022,"x_min":0,"x_max":0,"o":"m 980 972 b 787 962 947 972 893 962 b 595 972 682 962 627 972 b 563 952 574 972 563 968 b 657 736 563 907 657 987 l 657 404 b 511 64 657 177 592 64 b 365 404 430 64 365 177 l 365 736 b 459 952 365 987 459 907 b 426 972 459 968 447 972 b 234 962 394 972 340 962 b 42 972 128 962 74 972 b 10 952 21 972 10 968 b 104 736 10 907 104 987 l 104 404 b 511 -19 104 64 286 -19 b 918 404 736 -19 918 64 l 918 736 b 1012 952 918 987 1012 907 b 979 972 1012 968 1001 972 z m 377 1108 b 479 1197 434 1108 479 1148 b 377 1285 479 1246 434 1285 b 275 1197 321 1285 275 1246 b 377 1108 275 1148 321 1108 z m 644 1108 b 746 1197 700 1108 746 1148 b 644 1285 746 1246 700 1285 b 542 1197 588 1285 542 1246 b 644 1108 542 1148 588 1108 z "},"Ý":{"ha":946,"x_min":0,"x_max":0,"o":"m 930 972 b 822 962 898 972 883 962 b 712 972 761 962 744 972 b 670 952 691 972 670 968 b 661 736 670 905 781 987 l 559 524 l 457 736 b 448 952 343 972 448 911 b 406 972 448 969 427 972 b 212 962 374 972 318 962 b 19 972 107 962 51 972 b -13 952 -3 972 -13 969 b 186 736 -13 915 74 972 l 342 410 l 342 237 b 248 22 342 -13 248 67 b 281 1 248 6 260 1 b 473 12 313 1 367 12 b 665 1 579 12 633 1 b 697 22 686 1 697 6 b 603 237 697 67 603 -13 l 603 408 l 761 736 b 958 952 881 987 958 909 b 930 972 958 967 951 972 z m 489 1095 l 511 1095 b 538 1110 522 1095 532 1101 l 639 1247 b 639 1278 644 1256 645 1268 b 612 1294 634 1288 623 1294 l 536 1294 b 505 1269 521 1294 508 1283 l 458 1133 b 464 1107 456 1124 459 1114 b 489 1095 470 1100 479 1095 z "},"ß":{"ha":1019,"x_min":0,"x_max":0,"o":"m 764 494 b 931 705 866 543 931 619 b 519 992 931 852 747 992 b 106 663 237 992 106 810 l 106 236 b 13 20 106 -14 13 66 b 45 0 13 4 24 0 b 216 10 77 0 110 10 b 367 0 322 10 335 0 l 367 684 b 508 898 367 820 431 898 b 649 705 586 898 649 800 b 477 532 649 609 564 532 l 477 532 b 430 485 451 532 430 511 b 477 438 430 459 451 438 l 494 438 b 712 266 608 438 712 355 b 500 95 712 177 612 95 l 477 95 b 430 47 451 95 430 74 b 477 0 430 21 451 0 l 519 0 b 994 266 781 0 994 119 b 764 494 994 363 901 448 z "},"à":{"ha":865,"x_min":0,"x_max":0,"o":"m 488 829 b 515 814 494 820 504 814 l 537 814 b 561 826 546 814 555 818 b 567 852 567 833 569 843 l 520 988 b 490 1013 517 1002 505 1013 l 414 1013 b 387 997 402 1013 392 1007 b 387 965 381 987 381 975 z m 755 236 l 755 485 b 765 709 755 641 765 677 b 739 741 765 730 755 741 b 635 658 703 741 722 658 b 335 741 504 658 499 741 b 35 360 169 741 35 571 b 335 -21 35 150 169 -21 b 541 84 415 -21 488 19 b 635 0 562 34 593 0 b 849 62 671 0 849 27 b 755 236 849 118 755 44 z m 515 360 b 400 63 515 196 464 63 b 285 360 337 63 285 196 b 400 658 285 524 337 658 b 456 620 424 658 444 637 b 515 360 491 569 515 472 z "},"á":{"ha":865,"x_min":0,"x_max":0,"o":"m 431 814 l 454 814 b 480 829 465 814 475 820 l 581 965 b 582 997 587 975 587 987 b 555 1013 576 1007 566 1013 l 478 1013 b 448 988 464 1013 451 1002 l 401 852 b 407 826 399 843 401 833 b 431 814 413 818 422 814 z m 755 236 l 755 485 b 765 709 755 641 765 677 b 739 741 765 730 755 741 b 635 658 703 741 722 658 b 335 741 504 658 499 741 b 35 360 169 741 35 571 b 335 -21 35 150 169 -21 b 541 84 415 -21 488 19 b 635 0 562 34 593 0 b 849 62 671 0 849 27 b 755 236 849 118 755 44 z m 515 360 b 400 63 515 196 464 63 b 285 360 337 63 285 196 b 400 658 285 524 337 658 b 456 620 424 658 444 637 b 515 360 491 569 515 472 z "},"â":{"ha":865,"x_min":0,"x_max":0,"o":"m 368 816 l 384 816 b 406 827 392 816 401 820 l 459 887 b 481 898 464 894 472 898 b 503 887 489 898 498 894 l 556 827 b 578 816 561 820 569 816 l 594 816 b 619 831 604 816 614 822 b 620 860 624 840 625 851 l 547 999 b 520 1015 541 1009 531 1015 l 441 1015 b 415 999 430 1015 420 1009 l 342 860 b 343 831 337 851 337 840 b 368 816 348 822 358 816 z m 755 236 l 755 485 b 765 709 755 641 765 677 b 739 741 765 730 755 741 b 635 658 703 741 722 658 b 335 741 504 658 499 741 b 35 360 169 741 35 571 b 335 -21 35 150 169 -21 b 541 84 415 -21 488 19 b 635 0 562 34 593 0 b 849 62 671 0 849 27 b 755 236 849 118 755 44 z m 515 360 b 400 63 515 196 464 63 b 285 360 337 63 285 196 b 400 658 285 524 337 658 b 456 620 424 658 444 637 b 515 360 491 569 515 472 z "},"ã":{"ha":865,"x_min":0,"x_max":0,"o":"m 302 884 b 310 873 303 879 306 875 b 323 872 314 871 319 870 b 469 852 378 890 424 861 b 654 903 540 837 594 845 b 658 918 658 907 660 913 l 653 943 b 645 954 652 948 649 951 b 632 955 641 956 636 957 b 486 975 577 937 531 966 b 301 924 415 989 361 982 b 297 908 297 920 296 914 z m 755 236 l 755 485 b 765 709 755 641 765 677 b 739 741 765 730 755 741 b 635 658 703 741 722 658 b 335 741 504 658 499 741 b 35 360 169 741 35 571 b 335 -21 35 150 169 -21 b 541 84 415 -21 488 19 b 635 0 562 34 593 0 b 849 62 671 0 849 27 b 755 236 849 118 755 44 z m 515 360 b 400 63 515 196 464 63 b 285 360 337 63 285 196 b 400 658 285 524 337 658 b 456 620 424 658 444 637 b 515 360 491 569 515 472 z "},"ä":{"ha":865,"x_min":0,"x_max":0,"o":"m 321 825 b 423 913 377 825 423 864 b 321 1002 423 962 377 1002 b 219 913 265 1002 219 962 b 321 825 219 864 265 825 z m 588 825 b 690 913 644 825 690 864 b 588 1002 690 962 644 1002 b 486 913 531 1002 486 962 b 588 825 486 864 531 825 z m 755 236 l 755 485 b 765 709 755 641 765 677 b 739 741 765 730 755 741 b 635 658 703 741 722 658 b 335 741 504 658 499 741 b 35 360 169 741 35 571 b 335 -21 35 150 169 -21 b 541 84 415 -21 488 19 b 635 0 562 34 593 0 b 849 62 671 0 849 27 b 755 236 849 118 755 44 z m 515 360 b 400 63 515 196 464 63 b 285 360 337 63 285 196 b 400 658 285 524 337 658 b 456 620 424 658 444 637 b 515 360 491 569 515 472 z "},"å":{"ha":865,"x_min":0,"x_max":0,"o":"m 504 772 b 645 913 582 773 645 836 b 504 1054 645 991 582 1054 b 364 913 427 1054 364 991 b 504 772 364 836 427 773 z m 504 976 b 567 913 539 976 567 948 b 504 851 567 879 539 851 b 442 913 470 851 442 879 b 504 976 442 948 470 976 z m 755 236 l 755 485 b 765 709 755 641 765 677 b 739 741 765 730 755 741 b 635 658 703 741 722 658 b 335 741 504 658 499 741 b 35 360 169 741 35 571 b 335 -21 35 150 169 -21 b 541 84 415 -21 488 19 b 635 0 562 34 593 0 b 849 62 671 0 849 27 b 755 236 849 118 755 44 z m 515 360 b 400 63 515 196 464 63 b 285 360 337 63 285 196 b 400 658 285 524 337 658 b 456 620 424 658 444 637 b 515 360 491 569 515 472 z "},"æ":{"ha":1229,"x_min":0,"x_max":0,"o":"m 1162 329 b 1131 302 1146 329 1133 317 b 951 84 1114 177 1051 84 b 765 381 844 84 765 180 l 1149 381 b 1191 420 1177 381 1194 399 l 1191 420 b 854 741 1174 610 1030 741 b 743 720 816 741 778 734 l 593 720 b 554 699 566 718 562 708 b 527 653 543 684 534 669 b 335 741 475 708 408 741 b 35 360 169 741 35 571 b 335 -21 35 150 169 -21 b 580 140 436 -21 525 43 b 867 -21 644 43 748 -21 b 1193 294 1061 -21 1169 115 b 1186 318 1194 303 1192 312 b 1162 329 1180 325 1171 329 z m 875 679 b 982 444 928 679 972 585 l 768 444 b 875 679 778 585 822 679 z m 400 63 b 285 360 337 63 285 196 b 400 658 285 524 337 658 b 515 360 464 658 515 524 b 400 63 515 196 463 63 z "},"ç":{"ha":746,"x_min":0,"x_max":0,"o":"m 680 329 b 649 302 665 329 651 317 b 470 84 632 177 570 84 b 284 381 362 84 284 180 b 404 679 284 557 326 679 b 482 548 454 679 496 629 b 592 444 474 497 510 444 b 691 548 663 444 691 502 b 404 741 691 658 574 741 b 33 360 176 741 33 571 b 316 -14 33 175 155 21 l 352 -103 b 372 -117 356 -112 360 -119 l 372 -117 b 373 -116 372 -117 372 -117 l 373 -116 b 385 -115 377 -116 381 -115 b 456 -186 424 -115 456 -147 b 385 -256 456 -225 424 -256 b 335 -235 367 -256 348 -249 b 335 -235 335 -235 335 -235 b 300 -230 323 -221 309 -225 l 300 -230 l 299 -230 l 282 -239 l 281 -240 l 275 -242 b 258 -281 259 -251 249 -267 b 385 -344 288 -321 335 -344 b 544 -186 473 -344 544 -273 b 444 -39 544 -121 505 -63 l 444 -39 l 453 -15 b 712 294 605 13 690 137 b 704 318 713 303 710 312 b 680 329 698 325 689 329 z "},"è":{"ha":747,"x_min":0,"x_max":0,"o":"m 385 829 b 412 814 391 820 401 814 l 434 814 b 458 826 444 814 453 818 b 465 852 464 833 467 843 l 418 988 b 387 1013 415 1002 402 1013 l 311 1013 b 284 997 300 1013 289 1007 b 284 965 278 987 278 975 z m 680 329 b 649 302 665 329 651 317 b 470 84 632 177 570 84 b 284 381 362 84 284 180 l 664 381 b 709 426 704 381 711 406 b 372 741 689 612 546 741 b 33 360 185 741 33 571 b 385 -21 33 150 191 -21 b 712 294 580 -21 687 115 b 704 318 713 303 710 312 b 680 329 698 325 689 329 z m 393 679 b 501 444 446 679 490 585 l 286 444 b 393 679 296 585 340 679 z "},"é":{"ha":747,"x_min":0,"x_max":0,"o":"m 311 814 l 333 814 b 360 829 344 814 354 820 l 461 965 b 461 997 467 975 467 987 b 434 1013 456 1007 446 1013 l 358 1013 b 328 988 343 1013 331 1002 l 280 852 b 287 826 279 843 281 833 b 311 814 293 818 301 814 z m 680 329 b 649 302 665 329 651 317 b 470 84 632 177 570 84 b 284 381 362 84 284 180 l 664 381 b 709 426 704 381 711 406 b 372 741 689 612 546 741 b 33 360 185 741 33 571 b 385 -21 33 150 191 -21 b 712 294 580 -21 687 115 b 704 318 713 303 710 312 b 680 329 698 325 689 329 z m 393 679 b 501 444 446 679 490 585 l 286 444 b 393 679 296 585 340 679 z "},"ê":{"ha":747,"x_min":0,"x_max":0,"o":"m 260 814 l 276 814 b 298 824 284 814 292 818 l 350 885 b 373 895 356 892 364 895 b 395 885 381 895 389 892 l 447 824 b 470 814 453 818 461 814 l 486 814 b 511 829 496 814 505 820 b 512 857 516 837 516 848 l 438 997 b 412 1013 433 1007 423 1013 l 333 1013 b 307 997 322 1013 312 1007 l 234 857 b 234 829 229 848 229 837 b 260 814 240 820 249 814 z m 680 329 b 649 302 665 329 651 317 b 470 84 632 177 570 84 b 284 381 362 84 284 180 l 664 381 b 709 426 704 381 711 406 b 372 741 689 612 546 741 b 33 360 185 741 33 571 b 385 -21 33 150 191 -21 b 712 294 580 -21 687 115 b 704 318 713 303 710 312 b 680 329 698 325 689 329 z m 393 679 b 501 444 446 679 490 585 l 286 444 b 393 679 296 585 340 679 z "},"ë":{"ha":747,"x_min":0,"x_max":0,"o":"m 239 825 b 341 913 296 825 341 864 b 239 1002 341 962 296 1002 b 137 913 183 1002 137 962 b 239 825 137 864 183 825 z m 506 825 b 608 913 562 825 608 864 b 506 1002 608 962 562 1002 b 404 913 450 1002 404 962 b 506 825 404 864 450 825 z m 680 329 b 649 302 665 329 651 317 b 470 84 632 177 570 84 b 284 381 362 84 284 180 l 664 381 b 709 426 704 381 711 406 b 372 741 689 612 546 741 b 33 360 185 741 33 571 b 385 -21 33 150 191 -21 b 712 294 580 -21 687 115 b 704 318 713 303 710 312 b 680 329 698 325 689 329 z m 393 679 b 501 444 446 679 490 585 l 286 444 b 393 679 296 585 340 679 z "},"ì":{"ha":465,"x_min":0,"x_max":0,"o":"m 232 829 b 259 814 238 820 248 814 l 282 814 b 306 826 291 814 300 818 b 312 852 312 833 314 843 l 265 988 b 234 1013 262 1002 249 1013 l 158 1013 b 131 997 147 1013 136 1007 b 131 965 125 987 126 975 z m 357 236 l 357 709 b 287 720 357 753 308 730 b 53 678 219 689 161 678 b 21 658 32 678 21 674 b 115 443 21 613 115 693 l 115 236 b 21 20 115 -14 21 66 b 53 0 21 4 32 0 b 236 10 86 0 130 10 b 419 0 343 10 387 0 b 451 20 440 0 451 4 b 357 236 451 66 357 -14 z "},"í":{"ha":465,"x_min":0,"x_max":0,"o":"m 167 814 l 190 814 b 216 829 201 814 211 820 l 317 965 b 318 997 323 975 323 987 b 291 1013 312 1007 302 1013 l 215 1013 b 184 988 200 1013 187 1002 l 137 852 b 143 826 135 843 137 833 b 167 814 149 818 158 814 z m 357 236 l 357 709 b 287 720 357 753 308 730 b 53 678 219 689 161 678 b 21 658 32 678 21 674 b 115 443 21 613 115 693 l 115 236 b 21 20 115 -14 21 66 b 53 0 21 4 32 0 b 236 10 86 0 130 10 b 419 0 343 10 387 0 b 451 20 440 0 451 4 b 357 236 451 66 357 -14 z "},"î":{"ha":463,"x_min":0,"x_max":0,"o":"m 112 814 l 128 814 b 151 824 137 814 145 818 l 203 885 b 225 895 209 892 217 895 b 248 885 234 895 242 892 l 300 824 b 322 814 306 818 314 814 l 338 814 b 364 829 349 814 358 820 b 364 857 369 837 369 848 l 291 997 b 265 1013 286 1007 276 1013 l 186 1013 b 160 997 175 1013 165 1007 l 86 857 b 87 829 82 848 82 837 b 112 814 93 820 102 814 z m 355 236 l 355 709 b 285 720 355 753 306 730 b 53 678 217 689 160 678 b 21 658 32 678 21 674 b 115 443 21 613 115 693 l 115 236 b 21 20 115 -14 21 66 b 53 0 21 4 32 0 b 235 10 85 0 129 10 b 416 0 341 10 384 0 b 449 20 438 0 449 4 b 355 236 449 66 355 -14 z "},"ï":{"ha":461,"x_min":0,"x_max":0,"o":"m 67 825 b 169 913 124 825 169 864 b 67 1002 169 962 124 1002 b -35 913 11 1002 -35 962 b 67 825 -35 864 11 825 z m 334 825 b 436 913 390 825 436 864 b 334 1002 436 962 390 1002 b 232 913 278 1002 232 962 b 334 825 232 864 278 825 z m 354 236 l 354 709 b 285 720 354 753 306 730 b 53 678 217 689 160 678 b 20 658 32 678 20 674 b 114 443 20 613 114 693 l 114 236 b 20 20 114 -14 20 66 b 53 0 20 4 32 0 b 234 10 85 0 129 10 b 416 0 340 10 384 0 b 448 20 437 0 448 4 b 354 236 448 66 354 -14 z "},"ñ":{"ha":949,"x_min":0,"x_max":0,"o":"m 305 884 b 313 873 306 879 308 875 b 326 872 317 871 321 870 b 471 852 381 890 427 861 b 656 903 543 837 597 845 b 661 918 660 907 662 913 l 656 943 b 648 954 655 948 652 951 b 634 955 644 956 639 957 b 489 975 580 937 534 966 b 304 924 418 989 364 982 b 299 908 300 920 298 914 z m 846 236 l 846 424 b 540 741 846 634 709 741 b 355 663 470 741 406 712 l 355 709 b 285 720 355 753 306 730 b 53 679 217 689 160 679 b 21 658 32 679 21 674 b 115 443 21 613 115 693 l 115 236 b 21 20 115 -14 21 66 b 53 0 21 4 32 0 b 235 10 85 0 129 10 b 416 0 341 10 384 0 b 449 20 438 0 449 4 b 355 236 449 66 355 -14 l 355 360 b 484 658 355 524 407 658 b 605 382 564 658 605 546 l 605 236 b 511 20 605 -14 511 66 b 544 0 511 4 523 0 b 725 10 576 0 620 10 b 907 0 831 10 875 0 b 939 20 928 0 939 4 b 846 236 939 66 846 -14 z "},"ò":{"ha":785,"x_min":0,"x_max":0,"o":"m 392 741 b 32 360 193 741 32 571 b 392 -21 32 150 193 -21 b 752 360 591 -21 752 150 b 392 741 752 571 591 741 z m 392 42 b 282 360 332 42 282 184 b 392 679 282 536 332 679 b 502 360 453 679 502 536 b 392 42 502 184 453 42 z m 405 829 b 431 814 410 820 420 814 l 454 814 b 478 826 463 814 472 818 b 484 852 484 833 486 843 l 437 988 b 407 1013 434 1002 421 1013 l 330 1013 b 303 997 319 1013 309 1007 b 304 965 298 987 298 975 z "},"ó":{"ha":785,"x_min":0,"x_max":0,"o":"m 392 741 b 32 360 193 741 32 571 b 392 -21 32 150 193 -21 b 752 360 591 -21 752 150 b 392 741 752 571 591 741 z m 392 42 b 282 360 332 42 282 184 b 392 679 282 536 332 679 b 502 360 453 679 502 536 b 392 42 502 184 453 42 z m 330 814 l 353 814 b 379 829 364 814 374 820 l 480 965 b 481 997 486 975 486 987 b 454 1013 475 1007 465 1013 l 378 1013 b 347 988 363 1013 350 1002 l 300 852 b 306 826 298 843 300 833 b 330 814 312 818 321 814 z "},"ô":{"ha":785,"x_min":0,"x_max":0,"o":"m 392 741 b 32 360 193 741 32 571 b 392 -21 32 150 193 -21 b 752 360 591 -21 752 150 b 392 741 752 571 591 741 z m 392 42 b 282 360 332 42 282 184 b 392 679 282 536 332 679 b 502 360 453 679 502 536 b 392 42 502 184 453 42 z m 279 814 l 295 814 b 317 824 304 814 312 818 l 370 885 b 392 895 375 892 384 895 b 414 885 401 895 409 892 l 467 824 b 489 814 472 818 481 814 l 505 814 b 530 829 515 814 525 820 b 531 857 536 837 536 848 l 458 997 b 432 1013 453 1007 443 1013 l 352 1013 b 326 997 342 1013 331 1007 l 253 857 b 254 829 248 848 249 837 b 279 814 259 820 269 814 z "},"õ":{"ha":785,"x_min":0,"x_max":0,"o":"m 392 741 b 32 360 193 741 32 571 b 392 -21 32 150 193 -21 b 752 360 591 -21 752 150 b 392 741 752 571 591 741 z m 392 42 b 282 360 332 42 282 184 b 392 679 282 536 332 679 b 502 360 453 679 502 536 b 392 42 502 184 453 42 z m 217 884 b 224 873 218 879 220 875 b 238 872 229 871 233 870 b 383 852 293 890 339 861 b 568 903 454 837 509 845 b 573 918 572 907 574 913 l 568 943 b 560 954 567 948 564 951 b 546 955 556 956 551 957 b 401 975 492 937 446 966 b 216 924 330 989 276 982 b 211 908 212 920 210 914 z "},"ö":{"ha":785,"x_min":0,"x_max":0,"o":"m 392 741 b 32 360 193 741 32 571 b 392 -21 32 150 193 -21 b 752 360 591 -21 752 150 b 392 741 752 571 591 741 z m 392 42 b 282 360 332 42 282 184 b 392 679 282 536 332 679 b 502 360 453 679 502 536 b 392 42 502 184 453 42 z m 525 825 b 627 913 582 825 627 864 b 525 1002 627 962 582 1002 b 423 913 469 1002 423 962 b 525 825 423 864 469 825 z m 259 825 b 361 913 315 825 361 864 b 259 1002 361 962 315 1002 b 157 913 202 1002 157 962 b 259 825 157 864 202 825 z "},"÷":{"ha":653,"x_min":0,"x_max":0,"o":"m 326 139 b 420 233 378 139 420 181 b 326 327 420 285 378 327 b 232 233 274 327 232 285 b 326 139 232 181 274 139 z m 326 626 b 420 720 378 626 420 668 b 326 814 420 772 378 814 b 232 720 274 814 232 772 b 326 626 232 668 274 626 z m 620 416 l 620 537 l 32 537 l 32 416 z "},"ø":{"ha":788,"x_min":0,"x_max":0,"o":"m 623 654 l 699 793 l 561 793 l 519 717 b 393 741 479 733 437 741 b 33 360 195 741 33 571 b 164 66 33 242 84 136 l 88 -73 l 226 -73 l 268 3 b 393 -21 308 -13 350 -21 b 754 360 592 -21 754 150 b 623 654 754 478 703 584 z m 284 360 b 393 679 284 536 333 679 b 461 611 419 679 442 653 l 287 290 b 284 360 285 313 284 336 z m 393 42 b 326 110 368 42 344 67 l 500 430 b 503 360 502 407 503 384 b 393 42 503 184 454 42 z "},"ù":{"ha":946,"x_min":0,"x_max":0,"o":"m 483 829 b 510 814 489 820 499 814 l 532 814 b 556 826 542 814 550 818 b 563 852 562 833 565 843 l 515 988 b 485 1013 512 1002 500 1013 l 409 1013 b 382 997 397 1013 387 1007 b 382 965 376 987 376 975 z m 836 236 l 836 444 l 836 709 b 836 709 836 709 836 709 l 836 720 l 834 720 b 766 720 826 749 785 729 b 590 680 711 695 663 683 b 534 679 572 679 554 679 b 502 658 513 679 502 674 b 503 650 502 655 502 653 b 574 595 512 632 549 648 b 596 443 586 567 596 521 l 596 357 b 466 63 595 194 543 63 b 345 338 387 63 345 174 l 345 720 l 344 720 b 276 720 336 749 294 729 b 99 680 220 695 172 683 b 43 679 82 679 63 679 b 11 658 22 679 11 674 b 11 657 11 658 11 658 b 105 443 13 614 105 691 l 105 297 b 410 -21 105 86 242 -21 b 622 85 492 -21 567 19 b 716 0 642 35 674 0 b 930 62 752 0 930 27 b 836 236 930 118 836 44 z "},"ú":{"ha":946,"x_min":0,"x_max":0,"o":"m 444 814 l 467 814 b 493 829 478 814 488 820 l 594 965 b 595 997 600 975 600 987 b 568 1013 589 1007 579 1013 l 492 1013 b 461 988 477 1013 464 1002 l 414 852 b 420 826 412 843 414 833 b 444 814 426 818 435 814 z m 836 236 l 836 444 l 836 709 b 836 709 836 709 836 709 l 836 720 l 834 720 b 766 720 826 749 785 729 b 590 680 711 695 663 683 b 534 679 572 679 554 679 b 502 658 513 679 502 674 b 503 650 502 655 502 653 b 574 595 512 632 549 648 b 596 443 586 567 596 521 l 596 357 b 466 63 595 194 543 63 b 345 338 387 63 345 174 l 345 720 l 344 720 b 276 720 336 749 294 729 b 99 680 220 695 172 683 b 43 679 82 679 63 679 b 11 658 22 679 11 674 b 11 657 11 658 11 658 b 105 443 13 614 105 691 l 105 297 b 410 -21 105 86 242 -21 b 622 85 492 -21 567 19 b 716 0 642 35 674 0 b 930 62 752 0 930 27 b 836 236 930 118 836 44 z "},"û":{"ha":946,"x_min":0,"x_max":0,"o":"m 378 814 l 394 814 b 417 824 403 814 411 818 l 469 885 b 491 895 475 892 483 895 b 514 885 500 895 508 892 l 566 824 b 588 814 572 818 580 814 l 604 814 b 629 829 615 814 624 820 b 630 857 635 837 635 848 l 557 997 b 531 1013 552 1007 542 1013 l 452 1013 b 426 997 441 1013 431 1007 l 352 857 b 353 829 347 848 348 837 b 378 814 358 820 368 814 z m 836 236 l 836 444 l 836 709 b 836 709 836 709 836 709 l 836 720 l 834 720 b 766 720 826 749 785 729 b 590 680 711 695 663 683 b 534 679 572 679 554 679 b 502 658 513 679 502 674 b 503 650 502 655 502 653 b 574 595 512 632 549 648 b 596 443 586 567 596 521 l 596 357 b 466 63 595 194 543 63 b 345 338 387 63 345 174 l 345 720 l 344 720 b 276 720 336 749 294 729 b 99 680 220 695 172 683 b 43 679 82 679 63 679 b 11 658 22 679 11 674 b 11 657 11 658 11 658 b 105 443 13 614 105 691 l 105 297 b 410 -21 105 86 242 -21 b 622 85 492 -21 567 19 b 716 0 642 35 674 0 b 930 62 752 0 930 27 b 836 236 930 118 836 44 z "},"ü":{"ha":946,"x_min":0,"x_max":0,"o":"m 337 825 b 439 913 393 825 439 864 b 337 1002 439 962 393 1002 b 235 913 281 1002 235 962 b 337 825 235 864 281 825 z m 604 825 b 706 913 660 825 706 864 b 604 1002 706 962 660 1002 b 502 913 547 1002 502 962 b 604 825 502 864 547 825 z m 836 236 l 836 444 l 836 709 b 836 709 836 709 836 709 l 836 720 l 834 720 b 766 720 826 749 785 729 b 590 680 711 695 663 683 b 534 679 572 679 554 679 b 502 658 513 679 502 674 b 503 650 502 655 502 653 b 574 595 512 632 549 648 b 596 443 586 567 596 521 l 596 357 b 466 63 595 194 543 63 b 345 338 387 63 345 174 l 345 720 l 344 720 b 276 720 336 749 294 729 b 99 680 220 695 172 683 b 43 679 82 679 63 679 b 11 658 22 679 11 674 b 11 657 11 658 11 658 b 105 443 13 614 105 691 l 105 297 b 410 -21 105 86 242 -21 b 622 85 492 -21 567 19 b 716 0 642 35 674 0 b 930 62 752 0 930 27 b 836 236 930 118 836 44 z "},"ý":{"ha":843,"x_min":0,"x_max":0,"o":"m 808 720 b 686 710 797 720 725 710 b 540 720 647 710 551 720 b 500 700 532 720 500 720 b 560 485 500 652 651 735 l 475 251 l 390 485 b 427 700 299 735 427 649 b 387 720 427 717 408 720 b 188 710 355 720 294 710 b 45 720 82 710 77 720 b -1 700 23 720 -1 717 b 150 485 -1 653 59 735 l 354 -75 b 196 -271 286 -246 257 -271 b 154 -134 128 -271 137 -218 b 70 -42 165 -76 124 -42 b -22 -144 18 -42 -22 -74 b 202 -344 -22 -252 59 -344 b 480 25 357 -344 428 -123 l 648 485 b 844 700 739 735 844 652 b 808 720 844 718 823 720 z m 427 814 l 450 814 b 476 829 461 814 471 820 l 577 965 b 578 997 583 975 583 987 b 551 1013 572 1007 562 1013 l 475 1013 b 444 988 460 1013 447 1002 l 397 852 b 403 826 395 843 397 833 b 427 814 409 818 418 814 z "},"ÿ":{"ha":843,"x_min":0,"x_max":0,"o":"m 808 720 b 686 710 797 720 725 710 b 540 720 647 710 551 720 b 500 700 532 720 500 720 b 560 485 500 652 651 735 l 475 251 l 390 485 b 427 700 299 735 427 649 b 387 720 427 717 408 720 b 188 710 355 720 294 710 b 45 720 82 710 77 720 b -1 700 23 720 -1 717 b 150 485 -1 653 59 735 l 354 -75 b 196 -271 286 -246 257 -271 b 154 -134 128 -271 137 -218 b 70 -42 165 -76 124 -42 b -22 -144 18 -42 -22 -74 b 202 -344 -22 -252 59 -344 b 480 25 357 -344 428 -123 l 648 485 b 844 700 739 735 844 652 b 808 720 844 718 823 720 z m 325 825 b 427 913 382 825 427 864 b 325 1002 427 962 382 1002 b 223 913 269 1002 223 962 b 325 825 223 864 269 825 z m 592 825 b 694 913 648 825 694 864 b 592 1002 694 962 648 1002 b 490 913 536 1002 490 962 b 592 825 490 864 536 825 z "},"ı":{"ha":463,"x_min":0,"x_max":0,"o":"m 355 236 l 355 709 b 285 720 355 753 306 730 b 53 678 217 689 160 678 b 21 658 32 678 21 674 b 115 443 21 613 115 693 l 115 236 b 21 20 115 -14 21 66 b 53 0 21 4 32 0 b 235 10 85 0 129 10 b 416 0 341 10 384 0 b 449 20 438 0 449 4 b 355 236 449 66 355 -14 z "},"Œ":{"ha":1586,"x_min":0,"x_max":0,"o":"m 1510 330 b 1473 303 1493 330 1478 319 b 1189 95 1439 189 1369 95 l 1025 95 b 979 170 983 95 979 100 b 979 433 979 188 979 433 b 1018 471 979 454 996 471 l 1089 471 b 1111 471 1097 471 1104 471 b 1304 377 1334 465 1260 377 b 1324 410 1320 377 1324 388 b 1314 518 1324 442 1314 457 b 1324 627 1314 579 1324 595 b 1304 659 1324 648 1320 659 b 1106 565 1260 659 1335 569 l 1105 565 b 1100 565 1103 565 1102 565 b 1096 565 1099 565 1097 565 b 1095 565 1095 565 1095 565 b 1089 565 1093 565 1091 565 l 1018 565 b 979 604 996 565 979 582 l 979 736 b 979 804 979 764 979 786 b 1025 878 979 874 983 878 l 1168 878 b 1452 671 1348 878 1418 785 b 1497 644 1458 652 1477 640 b 1527 687 1516 648 1529 667 l 1496 933 b 1443 972 1492 957 1464 972 l 639 972 b 504 993 596 986 550 993 b 29 487 242 993 29 766 b 504 -19 29 207 242 -19 b 639 1 550 -19 596 -12 l 1478 1 b 1516 35 1497 1 1513 16 l 1548 287 b 1538 317 1549 298 1546 309 b 1510 330 1531 325 1521 330 z m 504 74 b 311 487 397 74 311 259 b 504 899 311 715 397 899 b 697 487 611 899 697 715 b 504 74 697 259 611 74 z "},"œ":{"ha":1219,"x_min":0,"x_max":0,"o":"m 1151 329 b 1120 302 1135 329 1122 317 b 940 84 1103 177 1040 84 b 754 381 833 84 754 180 l 1149 381 b 1181 407 1177 381 1181 397 b 843 741 1169 604 1022 741 b 624 651 760 741 683 707 b 392 741 562 707 481 741 b 32 360 193 741 32 571 b 392 -21 32 150 193 -21 b 627 71 482 -21 564 14 b 856 -21 688 14 768 -21 b 1182 294 1050 -21 1157 115 b 1174 318 1183 303 1180 312 b 1151 329 1168 325 1160 329 z m 864 679 b 971 444 917 679 961 585 l 757 444 b 864 679 767 585 811 679 z m 392 42 b 282 360 332 42 282 184 b 392 679 282 536 332 679 b 502 360 453 679 502 536 b 392 42 502 184 453 42 z "},"Š":{"ha":968,"x_min":0,"x_max":0,"o":"m 424 1111 b 450 1095 429 1101 439 1095 l 529 1095 b 555 1111 540 1095 550 1101 l 629 1250 b 628 1279 634 1260 633 1271 b 603 1294 623 1288 613 1294 l 587 1294 b 564 1283 578 1294 570 1290 l 512 1223 b 490 1213 506 1216 498 1213 b 467 1223 481 1213 473 1216 l 415 1283 b 393 1294 409 1290 401 1294 l 377 1294 b 351 1279 366 1294 357 1288 b 351 1250 346 1271 346 1260 z m 350 813 b 481 910 350 878 418 910 b 606 744 560 910 624 852 b 744 605 594 677 633 605 b 878 744 840 605 878 683 b 481 993 878 890 712 993 b 89 695 301 993 89 909 b 661 161 89 445 661 346 b 481 54 661 91 598 54 b 132 409 331 54 192 222 b 86 438 126 429 106 441 b 51 396 66 435 51 417 l 51 261 b 39 51 51 145 39 100 b 69 1 39 18 51 1 b 158 85 99 1 92 85 b 510 -20 245 85 301 -20 b 941 267 756 -20 941 64 b 350 813 941 534 350 620 z "},"š":{"ha":753,"x_min":0,"x_max":0,"o":"m 284 601 b 375 679 284 650 327 679 b 465 548 434 679 479 629 b 577 444 457 497 493 444 b 678 548 649 444 678 502 b 375 741 678 658 548 741 b 72 497 239 741 72 658 b 486 115 72 288 486 243 b 375 42 486 63 435 42 b 112 305 255 42 146 177 b 82 329 108 319 96 329 b 51 298 65 329 51 315 l 51 196 b 42 37 51 108 42 74 b 64 0 42 13 51 0 b 132 63 87 0 82 63 b 396 -21 197 63 229 -21 b 720 203 581 -21 720 42 b 284 601 720 419 284 469 z m 315 830 b 341 814 320 820 330 814 l 421 814 b 447 830 431 814 442 820 l 520 969 b 519 998 525 978 524 989 b 494 1013 514 1007 504 1013 l 478 1013 b 456 1002 469 1013 461 1009 l 403 942 b 381 932 398 935 390 932 b 359 942 372 932 364 935 l 306 1002 b 284 1013 301 1009 293 1013 l 268 1013 b 243 998 258 1013 248 1007 b 242 969 237 989 237 978 z "},"Ÿ":{"ha":946,"x_min":0,"x_max":0,"o":"m 930 972 b 822 962 898 972 883 962 b 712 972 761 962 744 972 b 670 952 691 972 670 968 b 661 736 670 905 781 987 l 559 524 l 457 736 b 448 952 343 972 448 911 b 406 972 448 969 427 972 b 212 962 374 972 318 962 b 19 972 107 962 51 972 b -13 952 -3 972 -13 969 b 186 736 -13 915 74 972 l 342 410 l 342 237 b 248 22 342 -13 248 67 b 281 1 248 6 260 1 b 473 12 313 1 367 12 b 665 1 579 12 633 1 b 697 22 686 1 697 6 b 603 237 697 67 603 -13 l 603 408 l 761 736 b 958 952 881 987 958 909 b 930 972 958 967 951 972 z m 638 1108 b 740 1197 694 1108 740 1148 b 638 1285 740 1246 694 1285 b 536 1197 581 1285 536 1246 b 638 1108 536 1148 581 1108 z m 371 1108 b 473 1197 427 1108 473 1148 b 371 1285 473 1246 427 1285 b 269 1197 314 1285 269 1246 b 371 1108 269 1148 314 1108 z "},"ž":{"ha":828,"x_min":0,"x_max":0,"o":"m 611 485 b 801 700 771 735 801 657 b 761 720 801 718 782 720 b 635 710 729 720 741 710 b 334 741 521 710 481 741 b 39 548 161 741 39 658 b 140 444 39 502 68 444 b 252 548 224 444 260 497 b 334 679 238 629 275 679 l 371 679 b 371 485 420 679 491 679 l 211 236 b 18 20 51 -14 18 63 b 58 0 18 2 37 0 l 758 0 b 780 37 771 0 780 13 b 771 196 780 74 771 108 l 771 298 b 744 329 771 314 759 327 b 710 305 728 330 713 320 b 468 63 670 130 611 63 l 430 63 l 430 63 b 451 236 386 63 344 63 z m 382 830 b 408 814 387 820 397 814 l 488 814 b 514 830 499 814 509 820 l 587 969 b 586 998 592 978 591 989 b 561 1013 581 1007 571 1013 l 545 1013 b 523 1002 536 1013 528 1009 l 470 942 b 448 932 465 935 457 932 b 426 942 439 932 431 935 l 373 1002 b 351 1013 368 1009 360 1013 l 335 1013 b 310 998 325 1013 315 1007 b 309 969 304 989 304 978 z "},"ˆ":{"ha":367,"x_min":0,"x_max":0,"o":"m 322 878 l 248 1018 b 222 1033 243 1027 233 1033 l 143 1033 b 117 1018 132 1033 122 1027 l 44 878 b 45 849 39 869 39 858 b 70 835 50 841 59 835 l 86 835 b 108 845 94 835 102 839 l 160 906 b 183 916 166 912 174 916 b 205 906 191 916 199 912 l 257 845 b 280 835 263 839 271 835 l 296 835 b 321 849 306 835 316 841 b 322 878 326 858 327 869 z "},"–":{"ha":957,"x_min":0,"x_max":0,"o":"m 914 416 l 914 537 l 42 537 l 42 416 z "},"—":{"ha":1090,"x_min":0,"x_max":0,"o":"m 1048 416 l 1048 537 l 42 537 l 42 416 z "},"‘":{"ha":269,"x_min":0,"x_max":0,"o":"m 161 975 b 161 975 161 975 161 975 b 186 1023 147 992 181 1011 b 178 1033 189 1029 185 1033 b 170 1032 175 1033 172 1033 b 43 895 115 1019 45 963 b 145 799 41 839 89 792 b 226 890 191 804 226 843 b 161 975 226 930 201 963 z "},"’":{"ha":267,"x_min":0,"x_max":0,"o":"m 122 1033 b 42 942 76 1028 42 989 b 106 857 42 901 66 869 b 107 857 106 857 107 857 b 81 809 120 839 86 821 b 90 798 78 803 82 798 b 98 800 92 799 95 799 b 224 937 152 813 222 869 b 122 1033 226 993 178 1039 z "},"“":{"ha":475,"x_min":0,"x_max":0,"o":"m 367 975 b 366 975 367 975 366 975 b 392 1023 353 992 387 1011 b 383 1033 395 1029 391 1033 b 375 1032 381 1033 378 1033 b 249 895 321 1019 251 963 b 351 799 247 839 295 792 b 431 890 397 804 431 843 b 367 975 431 930 407 963 z m 161 975 b 161 975 161 975 161 975 b 186 1023 147 992 181 1011 b 178 1033 189 1029 185 1033 b 170 1032 175 1033 172 1033 b 43 895 115 1019 45 963 b 145 799 41 839 89 792 b 226 890 191 804 226 843 b 161 975 226 930 201 963 z "},"”":{"ha":472,"x_min":0,"x_max":0,"o":"m 122 1033 b 42 942 76 1028 42 989 b 106 857 42 901 66 869 b 107 857 106 857 107 857 b 81 809 120 839 86 821 b 90 798 78 803 82 798 b 98 800 92 799 95 799 b 224 937 152 813 222 869 b 122 1033 226 993 178 1039 z m 328 1033 b 247 942 282 1028 247 989 b 312 857 247 901 272 869 b 312 857 312 857 312 857 b 287 809 326 839 292 821 b 295 798 284 803 288 798 b 303 800 298 799 301 799 b 430 937 358 813 428 869 b 328 1033 432 993 384 1039 z "},"„":{"ha":475,"x_min":0,"x_max":0,"o":"m 124 177 b 43 86 78 172 43 133 b 108 1 43 45 68 13 b 108 1 108 1 108 1 b 82 -47 122 -16 88 -35 b 91 -57 80 -53 83 -57 b 99 -56 94 -57 96 -57 b 226 81 154 -43 223 13 b 124 177 228 137 180 183 z m 330 177 b 249 86 283 172 249 133 b 314 1 249 45 274 13 b 314 1 314 1 314 1 b 288 -47 327 -16 293 -35 b 297 -57 286 -53 289 -57 b 305 -56 299 -57 302 -57 b 431 81 359 -43 429 13 b 330 177 433 137 385 183 z "},"•":{"ha":422,"x_min":0,"x_max":0,"o":"m 211 227 b 373 389 300 227 373 300 b 211 551 373 479 300 551 b 49 389 121 551 49 479 b 211 227 49 300 121 227 z "},"…":{"ha":863,"x_min":0,"x_max":0,"o":"m 186 8 b 241 141 238 29 262 89 b 107 196 219 193 160 218 b 52 63 55 175 31 115 b 186 8 74 11 133 -14 z m 470 8 b 525 141 522 29 547 89 b 392 196 504 193 444 218 b 337 63 340 175 315 115 b 470 8 358 11 418 -14 z m 755 8 b 810 141 807 29 832 89 b 677 196 788 193 729 218 b 622 63 625 175 600 115 b 755 8 643 11 703 -14 z "},"€":{"ha":1013,"x_min":0,"x_max":0,"o":"m 864 207 b 635 52 813 110 732 52 b 403 342 504 52 429 173 l 573 342 l 573 457 l 393 457 b 392 485 392 466 392 476 b 393 514 392 495 392 505 l 573 514 l 573 629 l 403 629 b 585 919 430 798 501 919 b 696 743 664 919 714 851 b 827 604 684 675 716 604 b 957 743 923 604 957 682 b 585 992 957 878 760 992 b 130 629 370 992 188 839 l 51 629 l 51 514 l 111 514 b 110 485 111 505 110 495 b 111 457 110 476 111 466 l 51 457 l 51 342 l 130 342 b 585 -21 188 132 370 -21 b 926 145 725 -21 843 44 b 864 207 976 206 900 274 z "},"":{"ha":1092,"x_min":0,"x_max":0,"o":"m 942 235 l 730 937 b 654 995 718 975 691 1000 l 496 976 b 437 919 474 973 449 961 l 327 557 b 15 349 165 572 15 497 b 214 189 15 203 130 159 b 70 20 143 -5 70 59 b 102 0 70 5 81 0 b 208 10 134 0 147 10 b 320 0 270 10 288 0 b 358 20 341 0 358 4 b 330 235 358 67 254 -15 l 401 471 b 671 235 518 439 634 359 b 642 20 743 0 642 62 b 681 0 642 3 660 0 b 876 10 713 0 770 10 b 1068 0 982 10 1036 0 b 1103 20 1089 0 1103 3 b 942 235 1103 62 1013 0 z m 277 392 b 122 344 227 450 122 419 b 114 353 122 334 114 332 b 305 486 114 447 200 489 z m 421 537 l 500 798 l 618 411 b 421 537 563 473 494 515 z "},"":{"ha":1249,"x_min":0,"x_max":0,"o":"m 994 494 b 1162 704 1096 543 1162 619 b 728 971 1162 851 968 971 l 660 971 b 468 960 628 971 573 960 b 275 971 362 960 307 971 b 248 485 -71 971 -69 485 b 337 508 284 485 314 494 l 337 235 b 243 20 337 -15 243 65 b 275 0 243 4 254 0 b 468 10 307 0 362 10 b 660 0 573 10 628 0 l 749 0 b 1224 266 1012 0 1224 119 b 994 494 1224 363 1132 447 z m 696 877 b 880 704 797 877 880 799 b 696 532 880 609 797 532 l 598 532 l 598 877 z m 243 571 b 234 563 253 571 260 563 b 243 930 27 563 48 930 b 337 747 313 930 336 874 b 275 762 318 757 297 762 b 243 571 122 762 145 571 z m 684 94 l 598 94 l 598 438 l 684 438 b 942 266 827 438 942 361 b 684 94 942 171 827 94 z "},"":{"ha":915,"x_min":0,"x_max":0,"o":"m 746 604 b 876 742 842 604 876 681 b 504 991 876 878 678 991 b 29 485 242 991 29 765 b 504 -21 29 205 242 -21 l 504 -21 b 876 252 727 -21 876 95 b 599 279 876 455 599 451 b 780 247 599 144 780 149 b 788 237 780 256 788 264 b 575 52 788 141 690 52 b 311 485 387 52 311 246 b 504 918 311 724 397 918 b 614 742 583 918 633 850 b 746 604 603 675 635 604 z "},"":{"ha":1253,"x_min":0,"x_max":0,"o":"m 749 971 l 660 971 b 468 960 628 971 573 960 b 275 971 362 960 307 971 b 248 485 -71 971 -69 485 b 337 508 284 485 314 494 l 337 235 b 243 20 337 -15 243 65 b 275 0 243 4 254 0 b 468 10 307 0 362 10 b 660 0 573 10 628 0 l 749 0 b 1224 485 1012 0 1224 217 b 749 971 1224 753 1012 971 z m 243 571 b 234 563 253 571 260 563 b 243 930 27 563 48 930 b 337 747 313 930 336 874 b 275 762 318 757 297 762 b 243 571 122 762 145 571 z m 684 94 l 598 94 l 598 877 l 684 877 b 942 485 827 877 942 701 b 684 94 942 269 827 94 z "},"":{"ha":1206,"x_min":0,"x_max":0,"o":"m 1128 329 b 1092 301 1111 329 1096 317 b 808 94 1058 187 988 94 l 644 94 b 598 235 591 94 598 100 l 598 469 l 708 469 b 923 376 958 469 878 376 b 943 408 939 376 943 387 b 933 516 943 440 933 455 b 943 625 933 578 943 593 b 923 657 943 646 939 657 b 708 563 878 657 958 563 l 598 563 l 598 735 b 644 877 598 870 591 877 l 787 877 b 1071 669 967 877 1037 783 b 1108 642 1076 653 1091 642 b 1136 655 1119 642 1129 646 b 1146 685 1144 663 1147 674 l 1114 931 b 1061 971 1111 955 1083 971 l 275 971 b 248 485 -71 971 -69 485 b 337 508 284 485 314 494 l 337 235 b 243 20 337 -15 243 65 b 275 0 243 4 254 0 l 1096 0 b 1135 33 1116 0 1132 14 l 1167 285 b 1157 316 1168 296 1165 307 b 1128 329 1150 324 1139 329 z m 275 762 b 243 571 122 762 145 571 b 234 563 253 571 260 563 b 243 930 27 563 48 930 b 337 747 313 930 336 874 b 275 762 318 757 297 762 z "},"":{"ha":1157,"x_min":0,"x_max":0,"o":"m 1146 685 l 1114 931 b 1062 971 1111 955 1083 971 l 275 971 b 248 485 -71 971 -69 485 b 337 508 284 485 314 494 l 337 235 b 243 20 337 -15 243 65 b 275 0 243 4 254 0 b 468 10 307 0 362 10 b 660 0 573 10 628 0 b 692 20 681 0 692 4 b 598 235 692 65 598 -15 l 598 469 l 708 469 b 923 376 958 469 878 376 b 943 408 939 376 943 387 b 933 516 943 440 933 455 b 943 625 933 578 943 593 b 923 657 943 646 939 657 b 708 563 878 657 958 563 l 598 563 l 598 735 b 644 877 598 870 591 877 l 787 877 b 1071 669 967 877 1037 783 b 1108 642 1076 653 1091 642 b 1137 655 1119 642 1129 646 b 1146 685 1144 663 1147 674 z m 275 762 b 243 571 122 762 145 571 b 234 563 253 571 260 563 b 243 930 27 563 48 930 b 337 747 313 930 336 874 b 275 762 318 757 297 762 z "},"":{"ha":944,"x_min":0,"x_max":0,"o":"m 831 563 l 476 563 b 418 506 444 563 418 538 l 418 408 b 439 376 418 387 423 376 b 627 469 482 376 410 462 b 470 73 624 249 555 73 b 314 485 384 73 314 257 b 507 918 314 724 400 918 b 617 742 585 918 635 850 b 749 604 606 675 637 604 b 879 742 845 604 879 681 b 507 991 879 878 681 991 b 32 485 245 991 32 765 b 418 -21 32 205 205 -21 b 661 91 510 -21 595 21 b 782 -65 707 17 782 8 b 669 -189 782 -135 749 -189 b 659 -181 642 -189 650 -181 b 627 0 757 -181 762 0 b 654 -277 455 0 451 -277 b 888 194 845 -277 888 -126 l 888 506 b 831 563 888 538 862 563 z "},"":{"ha":1256,"x_min":0,"x_max":0,"o":"m 1235 950 b 1202 971 1235 966 1224 971 b 1010 960 1170 971 1116 960 b 818 971 905 960 850 971 b 786 950 797 971 786 966 b 880 735 786 905 880 985 l 880 532 l 598 532 l 598 735 b 692 950 598 985 692 905 b 660 971 692 966 681 971 b 468 960 628 971 573 960 b 275 971 362 960 307 971 b 248 485 -71 971 -69 485 b 337 508 284 485 314 494 l 337 235 b 243 20 337 -15 243 65 b 275 0 243 4 254 0 b 468 10 307 0 362 10 b 660 0 573 10 628 0 b 692 20 681 0 692 4 b 598 235 692 65 598 -15 l 598 438 l 880 438 l 880 235 b 786 20 880 -15 786 65 b 818 0 786 4 797 0 b 1010 10 850 0 905 10 b 1202 0 1116 10 1170 0 b 1235 20 1224 0 1235 4 b 1141 235 1235 65 1141 -15 l 1141 735 b 1235 950 1141 985 1235 905 z m 243 571 b 234 563 253 571 260 563 b 243 930 27 563 48 930 b 337 747 313 930 336 874 b 275 762 318 757 297 762 b 243 571 122 762 145 571 z "},"":{"ha":713,"x_min":0,"x_max":0,"o":"m 598 735 b 692 950 598 985 692 905 b 660 971 692 966 681 971 b 468 960 628 971 573 960 b 275 971 362 960 307 971 b 248 485 -71 971 -69 485 b 337 508 284 485 314 494 l 337 235 b 243 20 337 -15 243 65 b 275 0 243 4 254 0 b 468 10 307 0 362 10 b 660 0 573 10 628 0 b 692 20 681 0 692 4 b 598 235 692 65 598 -15 z m 243 571 b 234 563 253 571 260 563 b 243 930 27 563 48 930 b 337 747 313 930 336 874 b 275 762 318 757 297 762 b 243 571 122 762 145 571 z "},"":{"ha":803,"x_min":0,"x_max":0,"o":"m 760 971 b 567 960 728 971 673 960 b 375 971 462 960 407 971 b 348 485 28 971 31 485 b 437 508 384 485 414 494 l 437 422 b 328 52 437 183 413 52 b 261 215 256 52 224 95 b 147 367 286 294 236 367 b 19 228 70 367 19 303 b 317 -21 19 93 178 -21 b 698 374 528 -21 698 94 l 698 735 b 792 950 698 985 792 905 b 760 971 792 966 781 971 z m 343 571 b 334 563 353 571 360 563 b 343 930 127 563 147 930 b 437 747 412 930 436 874 b 375 762 418 757 397 762 b 343 571 222 762 245 571 z "},"":{"ha":1253,"x_min":0,"x_max":0,"o":"m 1057 235 l 858 652 l 928 735 b 1214 950 1139 985 1214 913 b 1185 971 1214 967 1206 971 b 1071 960 1153 971 1132 960 b 948 971 1009 960 980 971 b 903 950 927 971 903 968 b 828 735 903 905 1038 985 l 598 463 l 598 735 b 692 950 598 985 692 905 b 660 971 692 966 681 971 b 468 960 628 971 573 960 b 275 971 362 960 307 971 b 248 485 -71 971 -69 485 b 337 508 284 485 314 494 l 337 235 b 243 20 337 -15 243 65 b 275 0 243 4 254 0 b 468 10 307 0 362 10 b 660 0 573 10 628 0 b 692 20 681 0 692 4 b 598 235 692 65 598 -15 l 598 344 l 685 447 l 786 235 b 786 20 900 0 786 62 b 825 0 786 3 803 0 b 1031 10 857 0 925 10 b 1217 0 1137 10 1185 0 b 1256 20 1238 0 1256 3 b 1057 235 1256 62 1169 0 z m 243 571 b 234 563 253 571 260 563 b 243 930 27 563 48 930 b 337 747 313 930 336 874 b 275 762 318 757 297 762 b 243 571 122 762 145 571 z "},"":{"ha":1157,"x_min":0,"x_max":0,"o":"m 787 94 l 644 94 b 598 235 591 94 598 100 l 598 735 b 692 950 598 985 692 905 b 660 971 692 966 681 971 b 468 960 628 971 573 960 b 275 971 362 960 307 971 b 248 485 -71 971 -69 485 b 290 490 262 485 276 487 b 323 482 302 492 313 489 b 337 452 332 475 337 464 l 337 235 b 243 20 337 -15 243 65 b 275 0 243 4 254 0 l 1076 0 b 1114 33 1095 0 1111 14 l 1146 285 b 1136 316 1147 296 1144 307 b 1108 329 1129 324 1119 329 b 1071 301 1091 329 1076 317 b 787 94 1037 187 967 94 z m 243 571 b 234 563 253 571 260 563 b 243 930 27 563 48 930 b 335 802 302 930 327 890 b 323 772 336 791 331 780 b 292 761 315 764 304 760 b 275 762 287 761 281 762 b 243 571 122 762 145 571 z "},"":{"ha":1360,"x_min":0,"x_max":0,"o":"m 1245 235 l 1245 735 b 1339 950 1245 985 1339 905 b 1307 971 1339 966 1328 971 l 1025 971 b 973 931 1001 971 980 954 l 791 272 l 648 791 l 609 931 b 557 971 602 954 581 971 l 275 971 b 248 485 -71 971 -69 485 b 337 508 284 485 314 494 l 337 235 b 243 20 337 -15 243 65 b 275 0 243 4 254 0 b 384 10 307 0 323 10 b 493 0 445 10 461 0 b 525 20 514 0 525 4 b 431 235 525 65 431 -15 l 431 631 l 595 39 b 646 0 601 16 622 0 l 769 0 b 821 39 793 0 814 16 l 984 631 l 984 240 l 984 240 b 984 235 984 239 984 237 b 890 20 984 -15 890 65 b 923 0 890 4 901 0 b 1115 10 955 0 1009 10 b 1307 0 1221 10 1275 0 b 1339 20 1328 0 1339 4 b 1245 235 1339 65 1245 -15 z m 243 571 b 234 563 253 571 260 563 b 243 930 27 563 48 930 b 314 890 276 930 299 917 b 337 747 326 864 336 821 b 275 762 318 757 297 762 b 243 571 122 762 145 571 z "},"":{"ha":1250,"x_min":0,"x_max":0,"o":"m 1202 971 b 1094 960 1170 971 1155 960 b 985 971 1033 960 1017 971 b 953 950 964 971 953 966 b 1047 735 953 905 1047 985 l 1047 338 l 493 953 b 454 971 483 964 469 971 l 275 971 b 248 485 -71 971 -69 485 b 337 508 284 485 314 494 l 337 235 b 243 20 337 -15 243 65 b 275 0 243 4 254 0 b 384 10 307 0 323 10 b 493 0 445 10 461 0 b 525 20 514 0 525 4 b 431 235 525 65 431 -15 l 431 632 l 985 17 b 1023 0 995 6 1009 0 l 1089 0 b 1141 51 1118 0 1141 23 l 1141 735 b 1235 950 1141 985 1235 905 b 1202 971 1235 966 1224 971 z m 243 571 b 234 563 253 571 260 563 b 243 930 27 563 48 930 b 314 890 276 930 299 917 b 337 747 326 864 336 821 b 275 762 318 757 297 762 b 243 571 122 762 145 571 z "},"":{"ha":1008,"x_min":0,"x_max":0,"o":"m 504 991 b 29 485 242 991 29 765 b 504 -21 29 205 242 -21 b 979 485 766 -21 979 205 b 504 991 979 765 766 991 z m 659 731 b 566 762 636 750 605 762 b 534 571 412 762 436 571 b 525 563 543 571 551 563 b 504 897 281 563 384 897 b 659 731 568 897 624 832 z m 504 73 b 311 485 397 73 311 257 b 318 592 311 521 313 557 b 535 475 350 524 420 475 b 694 561 619 475 671 512 b 697 485 696 536 697 511 b 504 73 697 257 611 73 z "},"":{"ha":1172,"x_min":0,"x_max":0,"o":"m 728 971 l 660 971 b 468 960 628 971 573 960 b 275 971 362 960 307 971 b 248 485 -71 971 -69 485 b 337 508 284 485 314 494 l 337 235 b 243 20 337 -15 243 65 b 275 0 243 4 254 0 b 468 10 307 0 362 10 b 660 0 573 10 628 0 b 692 20 681 0 692 4 b 598 235 692 65 598 -15 l 598 438 l 728 438 b 1162 704 968 438 1162 557 b 728 971 1162 851 968 971 z m 243 571 b 234 563 253 571 260 563 b 243 930 27 563 48 930 b 337 747 313 930 336 874 b 275 762 318 757 297 762 b 243 571 122 762 145 571 z m 696 532 l 598 532 l 598 877 l 696 877 b 880 704 797 877 880 799 b 696 532 880 609 797 532 z "},"":{"ha":1018,"x_min":0,"x_max":0,"o":"m 909 21 b 877 -133 774 21 786 -133 b 867 -141 886 -133 894 -141 b 619 -6 796 -141 716 -71 b 981 485 827 48 981 247 b 506 991 981 765 768 991 b 31 485 243 991 31 765 b 216 84 31 322 103 177 b 148 10 160 66 130 37 b 282 14 168 -20 210 14 b 359 3 308 14 334 11 b 380 -3 366 1 373 -1 b 875 -284 560 -67 690 -284 b 1043 -133 979 -284 1043 -215 b 909 21 1043 -51 1002 21 z m 506 897 b 699 485 612 897 699 713 b 506 73 699 257 612 73 b 312 485 399 73 312 257 b 506 897 312 713 399 897 z "},"":{"ha":1242,"x_min":0,"x_max":0,"o":"m 1141 215 b 958 487 1141 342 1068 435 b 1141 704 1069 535 1141 615 b 729 970 1141 847 958 964 l 728 971 l 660 971 b 468 960 628 971 573 960 b 275 971 362 960 307 971 b 248 485 -71 971 -69 485 b 337 508 284 485 314 494 l 337 235 b 243 20 337 -15 243 65 b 275 0 243 4 254 0 b 468 10 307 0 362 10 b 660 0 573 10 628 0 b 692 20 681 0 692 4 b 598 235 692 65 598 -15 l 598 438 l 739 438 b 880 235 817 438 880 347 b 786 20 880 -15 786 65 b 818 0 786 4 797 0 b 1010 10 850 0 905 10 b 1202 0 1116 10 1170 0 b 1235 20 1224 0 1235 4 b 1141 215 1235 65 1141 0 z m 243 571 b 234 563 253 571 260 563 b 243 930 27 563 48 930 b 337 747 313 930 336 874 b 275 762 318 757 297 762 b 243 571 122 762 145 571 z m 598 877 l 675 877 b 859 704 777 877 859 799 b 675 532 859 609 777 532 l 598 532 z "},"":{"ha":956,"x_min":0,"x_max":0,"o":"m 338 811 b 469 908 338 877 405 908 b 593 742 547 908 612 850 b 731 604 582 675 620 604 b 865 742 827 604 865 681 b 469 991 865 888 699 991 b 77 693 288 991 77 907 b 648 160 77 443 648 344 b 469 52 648 90 585 52 b 292 228 386 52 276 112 b 155 367 302 296 267 367 b 26 228 59 367 26 289 b 497 -21 26 49 267 -21 b 928 266 743 -21 928 62 b 338 811 928 532 338 618 z "},"":{"ha":1031,"x_min":0,"x_max":0,"o":"m 629 971 l 400 971 b 8 742 170 971 8 909 b 143 604 8 681 46 604 b 280 742 254 604 292 675 b 384 887 263 843 314 882 l 384 235 b 290 20 384 -15 290 65 b 323 0 290 4 301 0 b 515 10 355 0 409 10 b 707 0 620 10 675 0 b 739 20 728 0 739 4 b 645 235 739 65 645 -15 l 645 887 b 749 742 715 882 766 843 b 887 604 737 675 776 604 b 1021 742 983 604 1021 681 b 629 971 1021 909 859 971 z "},"":{"ha":1043,"x_min":0,"x_max":0,"o":"m 898 1012 b 680 874 794 1012 790 874 b 176 1030 486 874 391 1030 b 1 864 80 1030 1 943 b 141 728 1 798 38 728 b 323 863 258 728 229 863 b 391 858 346 863 369 861 l 391 235 b 297 20 391 -15 297 65 b 330 0 297 4 308 0 b 522 10 362 0 416 10 b 714 0 627 10 682 0 b 746 20 735 0 746 4 b 652 235 746 65 652 -15 l 652 754 b 869 710 711 729 779 710 b 1042 867 947 710 1042 778 b 898 1012 1042 935 1003 1012 z "},"":{"ha":1256,"x_min":0,"x_max":0,"o":"m 1213 971 b 1021 960 1181 971 1127 960 b 829 971 915 960 861 971 b 796 950 807 971 796 966 b 890 735 796 905 890 985 l 890 402 b 744 62 890 175 825 62 b 598 402 663 62 598 175 l 598 735 b 692 950 598 985 692 905 b 660 971 692 966 681 971 b 468 960 628 971 573 960 b 275 971 362 960 307 971 b 248 485 -71 971 -69 485 b 337 508 284 485 314 494 l 337 402 b 744 -21 337 62 519 -21 b 1151 402 969 -21 1151 62 l 1151 735 b 1245 950 1151 985 1245 905 b 1213 971 1245 966 1234 971 z m 243 571 b 234 563 253 571 260 563 b 243 930 27 563 48 930 b 337 747 313 930 336 874 b 275 762 318 757 297 762 b 243 571 122 762 145 571 z "},"":{"ha":1263,"x_min":0,"x_max":0,"o":"m 1241 971 b 1135 960 1209 971 1196 960 b 1023 971 1074 960 1055 971 b 985 950 1002 971 985 966 b 1014 735 985 903 1089 985 l 843 172 l 672 735 b 701 950 600 971 701 908 b 663 971 701 967 684 971 b 467 960 631 971 573 960 b 445 960 460 960 452 960 b 275 971 354 962 305 971 b 248 485 -71 971 -69 485 b 275 762 451 485 447 762 b 243 571 122 762 145 571 b 234 563 253 571 260 563 b 243 924 27 563 48 924 b 401 735 315 924 358 858 l 604 64 b 691 0 616 26 651 0 l 824 0 b 910 64 864 0 899 26 l 1114 735 b 1273 950 1190 985 1273 908 b 1241 971 1273 965 1262 971 z "},"":{"ha":1483,"x_min":0,"x_max":0,"o":"m 1458 971 b 1353 960 1426 971 1414 960 b 1240 971 1292 960 1272 971 b 1204 950 1219 971 1204 966 b 1251 735 1204 905 1305 985 l 1145 242 l 1039 735 b 1101 939 993 943 1080 918 b 1105 950 1103 941 1105 945 b 1071 971 1105 965 1093 971 b 966 960 1039 971 1027 960 b 854 971 905 960 886 971 b 817 950 832 971 817 966 b 864 735 817 905 918 985 l 758 242 l 652 735 b 699 950 600 971 699 911 b 663 971 699 967 684 971 b 467 960 631 971 572 960 b 444 960 459 960 451 960 b 275 971 353 962 305 971 b 248 485 -71 971 -69 485 b 402 633 354 485 404 561 l 530 41 b 581 0 535 17 556 0 l 764 0 b 815 41 789 0 810 17 l 866 277 l 917 41 b 968 0 922 17 943 0 l 1151 0 b 1202 41 1175 0 1197 17 l 1351 735 b 1492 950 1405 985 1492 909 b 1458 971 1492 965 1479 971 z m 275 762 b 243 571 122 762 145 571 b 234 563 253 571 260 563 b 243 924 27 563 48 924 b 380 735 315 924 345 860 l 380 735 l 390 688 b 275 762 372 730 333 762 z "},"":{"ha":1269,"x_min":0,"x_max":0,"o":"m 1053 235 l 848 562 l 969 735 b 1233 950 1144 985 1233 907 b 1208 971 1233 967 1227 971 b 1069 960 1169 971 1144 960 b 939 971 995 960 978 971 b 886 950 913 971 886 970 b 855 735 886 903 1030 985 l 794 648 l 740 735 b 741 950 595 985 741 900 b 697 971 741 969 718 971 b 489 960 665 971 595 960 b 275 971 382 960 308 971 b 248 485 -71 971 -69 485 b 275 762 451 485 447 762 b 243 571 122 762 145 571 b 234 563 253 571 260 563 b 243 924 27 563 48 924 b 438 735 315 924 363 848 l 635 420 l 506 235 b 241 20 331 -15 241 62 b 275 0 241 1 250 0 b 405 10 314 0 331 10 b 536 0 480 10 497 0 b 589 20 561 0 589 0 b 620 235 589 75 445 -15 l 689 335 l 751 235 b 750 20 893 0 750 72 b 795 0 750 4 773 0 b 1034 10 827 0 928 10 b 1241 0 1140 10 1209 0 b 1273 20 1263 0 1273 4 b 1053 235 1273 72 1198 -15 z "},"":{"ha":1203,"x_min":0,"x_max":0,"o":"m 1187 971 b 1079 960 1155 971 1140 960 b 969 971 1018 960 1001 971 b 927 950 948 971 927 966 b 918 735 927 903 1038 985 l 816 523 l 714 735 b 705 950 600 971 705 909 b 663 971 705 967 684 971 b 469 960 631 971 575 960 b 275 971 363 960 307 971 b 248 485 -71 971 -69 485 b 275 762 451 485 447 762 b 243 571 122 762 145 571 b 234 563 253 571 260 563 b 243 924 27 563 48 924 b 443 735 315 924 381 854 l 599 408 l 599 235 b 505 20 599 -15 505 65 b 538 0 505 4 516 0 b 730 10 570 0 624 10 b 922 0 836 10 890 0 b 954 20 943 0 954 4 b 860 235 954 65 860 -15 l 860 406 l 1018 735 b 1215 950 1138 985 1215 907 b 1187 971 1215 966 1208 971 z "},"":{"ha":1078,"x_min":0,"x_max":0,"o":"m 931 367 b 795 228 820 367 785 296 b 618 94 811 112 733 94 l 560 94 b 530 235 497 94 443 94 l 843 735 b 1040 950 988 985 1040 903 b 1006 971 1040 964 1027 971 l 446 971 b 50 742 202 971 50 888 b 184 604 50 681 88 604 b 322 742 295 604 334 675 b 446 877 304 850 368 877 l 524 877 b 541 735 576 877 624 877 l 228 235 b 8 20 83 -15 8 72 b 40 0 8 4 19 0 l 590 0 b 1061 228 852 0 1061 49 b 932 367 1061 289 1028 367 z "},"":{"ha":1360,"x_min":0,"x_max":0,"o":"m 1088 636 b 884 449 952 636 884 541 b 1035 281 884 364 933 281 b 1154 377 1159 281 1144 377 b 930 0 1178 377 1174 0 b 755 257 800 0 755 92 l 755 485 b 765 709 755 641 765 677 b 739 741 765 730 755 741 b 635 658 703 741 722 658 b 335 741 504 658 499 741 b 35 360 169 741 35 571 b 335 -21 35 150 169 -21 b 551 96 420 -21 497 24 b 905 -86 610 -9 736 -86 b 1326 347 1187 -86 1326 148 b 1088 636 1326 501 1246 636 z m 515 360 b 400 63 515 196 463 63 b 285 360 337 63 285 196 b 400 658 285 524 337 658 b 456 620 424 658 444 637 b 515 360 491 569 515 472 z "},"":{"ha":1360,"x_min":0,"x_max":0,"o":"m 1088 636 b 884 449 952 636 884 541 b 1035 281 884 364 933 281 b 1154 377 1159 281 1144 377 b 930 0 1178 377 1174 0 b 755 257 800 0 755 92 l 755 1022 b 685 1033 755 1066 706 1043 b 453 992 617 1002 561 992 b 421 972 432 992 421 987 b 515 756 421 926 515 1006 l 515 665 b 335 741 465 713 402 741 b 35 360 169 741 35 571 b 335 -21 35 150 169 -21 b 551 96 420 -21 497 24 b 905 -86 610 -9 736 -86 b 1326 347 1187 -86 1326 148 b 1088 636 1326 501 1246 636 z m 515 360 b 400 63 515 196 463 63 b 285 360 337 63 285 196 b 400 658 285 524 337 658 b 515 360 463 658 515 524 z "},"":{"ha":1442,"x_min":0,"x_max":0,"o":"m 1170 636 b 967 449 1034 636 967 541 b 1117 281 967 364 1015 281 b 1236 377 1241 281 1227 377 b 1012 0 1260 377 1257 0 b 837 257 882 0 837 92 l 837 424 b 532 741 837 634 700 741 b 347 663 462 741 398 712 l 347 1022 b 277 1033 347 1066 298 1043 b 45 992 209 1002 152 992 b 12 972 24 992 12 987 b 106 756 12 926 106 1006 l 106 236 b 12 20 106 -14 12 66 b 45 0 12 4 24 0 b 226 10 77 0 121 10 b 408 0 332 10 376 0 b 440 20 429 0 440 4 b 347 236 440 66 347 -14 l 347 360 b 476 658 347 524 399 658 b 597 382 555 658 597 546 l 597 236 b 987 -86 597 40 750 -86 b 1408 347 1269 -86 1408 148 b 1170 636 1408 501 1329 636 z "},"":{"ha":950,"x_min":0,"x_max":0,"o":"m 678 636 b 474 449 542 636 474 541 b 625 281 474 364 523 281 b 744 377 749 281 735 377 b 520 0 768 377 765 0 b 345 257 390 0 345 92 l 345 709 b 276 720 345 753 297 730 b 43 679 208 689 151 679 b 11 658 22 679 11 674 b 105 443 11 613 105 693 l 105 236 b 495 -86 105 65 258 -86 b 916 347 777 -86 916 148 b 678 636 916 501 837 636 z m 206 762 b 340 878 280 762 340 814 b 206 995 340 943 280 995 b 72 878 132 995 72 943 b 206 762 72 814 132 762 z "},"":{"ha":1421,"x_min":0,"x_max":0,"o":"m 1149 636 b 946 449 1013 636 946 541 b 1096 281 946 364 994 281 b 1215 377 1220 281 1206 377 b 991 0 1239 377 1236 0 b 816 257 861 0 816 92 l 816 277 b 565 531 816 423 744 517 b 868 700 799 724 868 651 b 837 720 868 720 845 720 b 676 710 826 720 714 710 b 537 720 637 710 549 720 b 503 700 530 720 503 724 b 424 485 503 641 701 735 l 347 415 l 347 1022 b 277 1033 347 1066 298 1043 b 45 992 209 1002 152 992 b 13 972 24 992 13 987 b 106 756 13 926 106 1006 l 106 236 b 13 20 106 -14 13 66 b 45 0 13 4 24 0 b 227 10 77 0 121 10 b 408 0 332 10 376 0 b 441 20 429 0 441 4 b 347 236 441 66 347 -14 l 347 336 l 471 448 b 576 236 558 442 576 386 b 966 -86 576 65 729 -86 b 1387 347 1248 -86 1387 148 b 1149 636 1387 501 1308 636 z "},"":{"ha":901,"x_min":0,"x_max":0,"o":"m 629 636 b 426 449 494 636 426 541 b 577 281 426 364 475 281 b 696 377 701 281 686 377 b 472 0 720 377 716 0 b 297 257 341 0 297 92 l 297 1022 b 227 1033 297 1066 248 1043 b -5 992 159 1002 102 992 b -37 972 -26 992 -37 987 b 56 756 -37 926 56 1006 l 56 236 b 447 -86 56 65 209 -86 b 868 347 728 -86 868 148 b 629 636 868 501 788 636 z "},"":{"ha":1879,"x_min":0,"x_max":0,"o":"m 1606 636 b 1403 449 1471 636 1403 541 b 1553 281 1403 364 1452 281 b 1673 377 1678 281 1663 377 b 1449 0 1697 377 1693 0 b 1274 257 1318 0 1274 92 l 1274 424 b 984 741 1274 634 1144 741 b 767 613 898 741 820 692 b 525 741 715 698 626 741 b 355 669 461 741 403 714 l 355 709 b 285 720 355 753 306 730 b 53 679 217 689 160 679 b 21 658 32 679 21 674 b 115 443 21 613 115 693 l 115 236 b 21 20 115 -14 21 66 b 53 0 21 4 32 0 b 235 10 85 0 129 10 b 416 0 341 10 384 0 b 449 20 438 0 449 4 b 355 236 449 66 355 -14 l 355 360 b 472 658 355 524 402 658 b 574 382 544 658 574 546 l 574 236 b 480 20 574 -14 480 66 b 513 0 480 4 491 0 b 694 10 545 0 588 10 b 876 0 800 10 844 0 b 908 20 897 0 908 4 b 814 236 908 66 814 -14 l 814 360 b 931 658 814 524 861 658 b 1033 382 1003 658 1033 546 l 1033 236 b 1424 -86 1033 65 1186 -86 b 1845 347 1705 -86 1845 148 b 1606 636 1845 501 1765 636 z "},"":{"ha":1450,"x_min":0,"x_max":0,"o":"m 1178 636 b 975 449 1043 636 975 541 b 1125 281 975 364 1024 281 b 1245 377 1250 281 1235 377 b 1021 0 1269 377 1265 0 b 846 257 890 0 846 92 l 846 424 b 540 741 846 634 709 741 b 355 663 470 741 406 712 l 355 709 b 285 720 355 753 306 730 b 53 678 217 689 160 678 b 21 658 32 678 21 674 b 115 443 21 613 115 693 l 115 236 b 21 20 115 -14 21 66 b 53 0 21 4 32 0 b 235 10 85 0 129 10 b 416 0 341 10 384 0 b 449 20 438 0 449 4 b 355 236 449 66 355 -14 l 355 360 b 484 658 355 524 407 658 b 605 382 564 658 605 546 l 605 236 b 996 -86 605 65 758 -86 b 1417 347 1277 -86 1417 148 b 1178 636 1417 501 1337 636 z "},"":{"ha":950,"x_min":0,"x_max":0,"o":"m 678 636 b 475 449 542 636 475 541 b 625 281 475 364 523 281 b 744 377 749 281 735 377 b 520 0 768 377 765 0 b 345 257 390 0 345 92 l 345 658 l 514 658 b 545 689 531 658 545 672 b 514 720 545 706 531 720 l 345 720 l 345 940 b 314 971 345 957 331 971 l 305 971 b 276 950 292 971 280 963 b 38 722 238 846 148 738 b 11 691 22 720 11 707 l 11 689 b 42 658 11 672 25 658 l 105 658 l 105 236 b 495 -86 105 65 258 -86 b 916 347 777 -86 916 148 b 678 636 916 501 837 636 z "},"":{"ha":1440,"x_min":0,"x_max":0,"o":"m 1168 636 b 965 449 1033 636 965 541 b 1116 281 965 364 1014 281 b 1235 377 1240 281 1225 377 b 1011 0 1259 377 1255 0 b 836 257 880 0 836 92 l 836 709 b 766 720 836 753 787 730 b 534 679 698 689 641 679 b 502 658 513 679 502 674 b 596 443 502 613 596 693 l 596 357 b 466 63 595 194 543 63 b 345 338 387 63 345 174 l 345 709 b 276 720 345 753 297 730 b 43 678 208 689 151 678 b 11 658 22 678 11 674 b 105 443 11 613 105 693 l 105 297 b 410 -21 105 86 242 -21 b 632 97 497 -21 576 25 b 986 -86 690 -9 816 -86 b 1407 347 1267 -86 1407 148 b 1168 636 1407 501 1327 636 z "},"":{"ha":1203,"x_min":0,"x_max":0,"o":"m 931 636 b 727 449 795 636 727 541 b 878 281 727 364 776 281 b 1060 377 1002 281 1050 377 b 752 0 1084 377 1070 0 b 453 236 622 0 338 48 l 612 485 b 802 700 772 735 802 657 b 762 720 802 718 783 720 b 636 710 730 720 742 710 b 336 741 522 710 483 741 b 40 548 162 741 40 658 b 141 444 40 502 69 444 b 253 548 225 444 262 497 b 336 679 239 629 277 679 l 372 679 b 372 485 421 679 492 679 l 213 236 b 19 20 52 -14 19 63 b 60 0 19 2 39 0 b 748 -86 411 0 510 -86 b 1169 347 1030 -86 1169 148 b 931 636 1169 501 1090 636 z "},"":{"ha":1789,"x_min":0,"x_max":0,"o":"m 1778 685 l 1747 932 b 1694 971 1743 955 1715 971 l 52 971 b 19 951 31 971 19 966 b 113 735 19 905 113 985 l 113 236 b 19 20 113 -14 19 66 b 52 0 19 4 31 0 l 873 0 b 911 34 892 0 909 14 l 943 286 b 913 328 946 305 932 324 b 868 301 893 332 874 320 b 584 94 834 187 764 94 l 421 94 b 374 236 368 94 374 101 l 374 431 b 413 470 374 453 392 470 l 484 470 b 700 376 734 470 654 376 b 720 408 715 376 720 387 b 709 517 720 440 709 455 b 720 625 709 578 720 593 b 700 658 720 647 715 658 b 484 564 654 658 734 564 l 413 564 b 386 575 403 564 393 568 b 374 602 378 582 374 592 l 374 735 b 421 877 374 870 368 877 l 1115 877 b 1147 735 1147 874 1147 854 l 1147 236 b 1053 20 1147 -14 1053 66 b 1085 0 1053 4 1064 0 b 1277 10 1117 0 1172 10 b 1469 0 1383 10 1437 0 b 1502 20 1491 0 1502 4 b 1408 236 1502 66 1408 -14 l 1408 735 b 1440 876 1408 855 1408 874 b 1703 670 1605 869 1670 779 b 1748 643 1709 650 1728 639 b 1778 685 1767 647 1781 665 z "},"":{"ha":1579,"x_min":0,"x_max":0,"o":"m 1569 685 l 1537 932 b 1484 971 1533 955 1506 971 l 52 971 b 19 951 31 971 19 966 b 113 735 19 905 113 985 l 113 236 b 19 20 113 -14 19 66 b 52 0 19 4 31 0 b 244 10 84 0 138 10 b 436 0 350 10 404 0 b 468 20 457 0 468 4 b 374 236 468 66 374 -14 l 374 470 l 484 470 b 700 376 734 470 654 376 b 720 408 715 376 720 387 b 709 517 720 440 709 455 b 720 625 709 578 720 593 b 700 658 720 647 715 658 b 484 564 654 658 734 564 l 374 564 l 374 735 b 421 877 374 870 368 877 l 906 877 b 937 735 937 874 937 854 l 937 236 b 843 20 937 -14 843 66 b 876 0 843 4 855 0 b 1068 10 908 0 962 10 b 1260 0 1174 10 1228 0 b 1292 20 1281 0 1292 4 b 1198 236 1292 66 1198 -14 l 1198 735 b 1230 876 1198 855 1198 874 b 1494 670 1395 869 1461 779 b 1538 643 1499 650 1519 639 b 1569 685 1558 647 1571 665 z "},"":{"ha":1214,"x_min":0,"x_max":0,"o":"m 1100 236 l 1100 735 b 1194 951 1100 985 1194 905 b 1161 971 1194 966 1183 971 b 969 960 1129 971 1075 960 b 777 971 864 960 809 971 l 52 971 b 19 951 31 971 19 966 b 113 735 19 905 113 985 l 113 236 b 19 20 113 -14 19 66 b 52 0 19 4 31 0 b 244 10 84 0 138 10 b 436 0 350 10 404 0 b 468 20 457 0 468 4 b 374 236 468 66 374 -14 l 374 470 l 484 470 b 700 376 734 470 654 376 b 720 408 715 376 720 387 b 709 517 720 440 709 455 b 720 625 709 578 720 593 b 700 658 720 647 715 658 b 484 564 654 658 734 564 l 374 564 l 374 735 b 421 877 374 870 368 877 l 563 877 b 839 626 779 877 839 756 l 839 236 b 745 20 839 -14 745 66 b 777 0 745 4 756 0 b 969 10 809 0 864 10 b 1161 0 1075 10 1129 0 b 1194 20 1183 0 1194 4 b 1100 236 1194 66 1100 -14 z "},"":{"ha":1615,"x_min":0,"x_max":0,"o":"m 1605 685 l 1574 932 b 1521 971 1570 955 1542 971 l 94 971 b 41 932 73 971 45 955 l 10 685 b 40 643 8 665 21 647 b 85 670 60 639 79 650 b 348 876 118 779 183 869 b 380 735 380 874 380 855 l 380 236 b 286 20 380 -14 286 66 b 319 0 286 4 297 0 b 511 10 351 0 405 10 b 703 0 616 10 671 0 b 735 20 724 0 735 4 b 641 236 735 66 641 -14 l 641 735 b 673 877 641 854 641 874 l 942 877 b 974 735 974 874 974 854 l 974 236 b 880 20 974 -14 880 66 b 912 0 880 4 891 0 b 1104 10 944 0 999 10 b 1296 0 1210 10 1264 0 b 1329 20 1318 0 1329 4 b 1235 236 1329 66 1235 -14 l 1235 735 b 1267 876 1235 855 1235 874 b 1530 670 1432 869 1497 779 b 1575 643 1536 650 1555 639 b 1605 685 1594 647 1608 665 z "},"":{"ha":2017,"x_min":0,"x_max":0,"o":"m 1902 236 l 1902 735 b 1996 951 1902 985 1996 905 b 1964 971 1996 966 1985 971 b 1771 960 1932 971 1877 960 b 1579 971 1666 960 1611 971 b 1547 951 1558 971 1547 966 b 1641 735 1547 905 1641 985 l 1641 564 l 1359 564 l 1359 735 b 1453 951 1359 985 1453 905 b 1421 971 1453 966 1442 971 b 1229 960 1389 971 1334 960 b 1037 971 1123 960 1069 971 b 1004 951 1015 971 1004 966 b 1098 735 1004 905 1098 985 l 1098 564 l 476 564 b 418 507 444 564 418 538 l 418 408 b 439 376 418 387 423 376 b 627 469 482 376 410 463 b 470 73 624 249 555 73 b 314 485 384 73 314 258 b 507 919 314 725 400 919 b 617 743 585 919 635 851 b 749 604 606 675 637 604 b 879 743 845 604 879 682 b 507 992 879 878 681 992 b 32 485 245 992 32 765 b 418 -21 32 206 205 -21 b 662 93 511 -21 595 22 b 799 0 692 38 739 0 l 908 0 b 940 20 929 0 940 4 b 888 236 940 66 888 0 l 888 470 l 1098 470 l 1098 236 b 1004 20 1098 -14 1004 66 b 1037 0 1004 4 1015 0 b 1229 10 1069 0 1123 10 b 1421 0 1334 10 1389 0 b 1453 20 1442 0 1453 4 b 1359 236 1453 66 1359 -14 l 1359 470 l 1641 470 l 1641 236 b 1547 20 1641 -14 1547 66 b 1579 0 1547 4 1558 0 b 1771 10 1611 0 1666 10 b 1964 0 1877 10 1932 0 b 1996 20 1985 0 1996 4 b 1902 236 1996 66 1902 -14 z "},"":{"ha":1108,"x_min":0,"x_max":0,"o":"m 995 606 l 995 735 b 1089 951 995 985 1089 905 b 1057 971 1089 966 1078 971 b 865 960 1025 971 971 960 b 673 971 759 960 705 971 b 641 951 652 971 641 966 b 735 735 641 905 735 985 l 735 606 b 641 391 735 356 641 436 b 673 371 641 375 652 371 b 865 381 705 371 759 381 b 1057 371 971 381 1025 371 b 1089 391 1078 371 1089 375 b 995 606 1089 436 995 356 z m 946 329 b 909 301 929 329 914 318 b 625 94 875 187 805 94 l 421 94 b 374 236 368 94 374 101 l 374 735 b 468 951 374 985 468 905 b 436 971 468 966 457 971 b 244 960 404 971 350 960 b 52 971 138 960 84 971 b 19 951 31 971 19 966 b 113 735 19 905 113 985 l 113 236 b 19 20 113 -14 19 66 b 52 0 19 4 31 0 l 914 0 b 952 34 933 0 950 14 l 984 286 b 975 316 985 296 982 307 b 946 329 967 324 957 329 z "},"":{"ha":1507,"x_min":0,"x_max":0,"o":"m 1114 741 b 754 360 915 741 754 571 b 520 84 754 204 650 84 b 284 381 395 84 284 162 b 404 679 284 557 326 679 b 482 548 454 679 496 629 b 592 444 474 497 510 444 b 691 548 663 444 691 502 b 404 741 691 658 574 741 b 33 360 176 741 33 571 b 422 -21 33 150 196 -21 b 794 185 628 -21 743 63 b 1114 -21 854 62 975 -21 b 1474 360 1313 -21 1474 150 b 1114 741 1474 571 1313 741 z m 1114 42 b 1004 360 1053 42 1004 184 b 1114 679 1004 536 1053 679 b 1223 360 1174 679 1223 536 b 1114 42 1223 184 1174 42 z "},"":{"ha":1481,"x_min":0,"x_max":0,"o":"m 1378 236 l 1378 424 b 1073 741 1378 634 1241 741 b 887 663 1003 741 939 712 l 887 864 b 538 1065 887 972 742 1065 b 114 720 277 1065 128 928 l 53 720 b 22 689 36 720 22 706 b 53 658 22 672 36 658 l 113 658 l 113 236 b 19 20 113 -14 19 66 b 52 0 19 4 31 0 b 233 10 84 0 128 10 b 415 0 339 10 383 0 b 447 20 436 0 447 4 b 353 236 447 66 353 -14 l 353 658 l 523 658 b 554 689 540 658 554 672 b 523 720 554 706 540 720 l 354 720 b 510 1002 361 888 423 1002 b 647 756 624 1002 647 844 l 647 236 b 553 20 647 -14 553 66 b 586 0 553 4 564 0 b 767 10 618 0 661 10 b 949 0 873 10 917 0 b 981 20 970 0 981 4 b 887 236 981 66 887 -14 l 887 360 b 1017 658 887 524 939 658 b 1138 382 1096 658 1138 546 l 1138 236 b 1044 20 1138 -14 1044 66 b 1076 0 1044 4 1055 0 b 1258 10 1108 0 1152 10 b 1439 0 1364 10 1407 0 b 1472 20 1461 0 1472 4 b 1378 236 1472 66 1378 -14 z "},"":{"ha":951,"x_min":0,"x_max":0,"o":"m 887 689 b 856 720 887 706 873 720 l 354 720 b 480 1002 358 888 398 1002 b 553 854 525 1002 573 938 b 655 763 540 796 591 763 b 767 864 718 763 767 794 b 472 1065 767 972 644 1065 b 114 720 252 1065 126 928 l 51 720 b 19 689 33 720 19 706 b 51 658 19 672 33 658 l 113 658 l 113 236 b 19 20 113 -14 19 66 b 52 0 19 4 31 0 b 233 10 84 0 128 10 b 415 0 339 10 383 0 b 447 20 436 0 447 4 b 353 236 447 66 353 -14 l 353 658 l 553 658 b 647 529 607 658 647 635 l 647 31 b 583 -282 647 -154 640 -282 b 542 -134 546 -282 525 -218 b 447 -42 553 -76 501 -42 b 344 -144 396 -42 344 -74 b 590 -344 344 -252 447 -344 b 887 0 781 -344 887 -225 z "},"":{"ha":1463,"x_min":0,"x_max":0,"o":"m 1357 236 l 1357 277 b 1106 531 1357 423 1285 517 b 1409 700 1340 724 1409 651 b 1378 720 1409 720 1386 720 b 1216 710 1366 720 1255 710 b 1078 720 1178 710 1090 720 b 1044 700 1070 720 1044 724 b 964 484 1044 641 1242 735 l 887 415 l 887 864 b 538 1065 887 972 742 1065 b 114 720 277 1065 128 928 l 51 720 b 19 689 33 720 19 706 b 51 658 19 672 33 658 l 113 658 l 113 236 b 19 20 113 -15 19 65 b 52 0 19 4 31 0 b 233 10 84 0 128 10 b 415 0 339 10 383 0 b 447 20 436 0 447 4 b 353 236 447 65 353 -15 l 353 658 l 522 658 b 553 689 539 658 553 672 b 522 720 553 706 539 720 l 354 720 b 510 1002 361 888 423 1002 b 647 756 625 1002 647 844 l 647 236 b 553 20 647 -15 553 65 b 586 0 553 4 564 0 b 767 10 618 0 661 10 b 949 0 873 10 917 0 b 981 20 970 0 981 4 b 887 236 981 65 887 -15 l 887 336 l 1012 448 b 1117 236 1098 442 1117 386 b 1023 20 1117 -15 1023 65 b 1055 0 1023 4 1034 0 b 1237 10 1087 0 1131 10 b 1419 0 1343 10 1387 0 b 1451 20 1440 0 1451 4 b 1357 236 1451 65 1357 -15 z "},"":{"ha":1375,"x_min":0,"x_max":0,"o":"m 1317 329 b 1287 298 1300 329 1287 315 b 1201 99 1287 159 1250 99 b 1117 277 1151 99 1117 138 l 1117 658 l 1285 658 b 1317 689 1303 658 1317 672 b 1285 720 1317 706 1303 720 l 1117 720 l 1117 940 b 1086 971 1117 957 1103 971 l 1077 971 b 1048 950 1064 971 1052 963 b 1018 886 1040 928 1030 907 b 793 1070 1013 981 944 1070 b 579 738 611 1070 536 901 b 527 741 562 740 545 741 b 355 677 454 741 398 716 l 355 709 b 285 720 355 753 306 730 b 53 678 217 689 160 678 b 21 658 32 678 21 674 b 115 443 21 613 115 693 l 115 236 b 21 20 115 -14 21 66 b 53 0 21 4 32 0 b 235 10 85 0 129 10 b 416 0 341 10 384 0 b 449 20 438 0 449 4 b 355 236 449 66 355 -14 l 355 350 b 496 668 355 526 400 668 b 574 548 546 668 588 629 b 684 444 566 497 602 444 b 783 548 755 444 783 502 b 727 678 783 599 764 645 b 783 1005 619 788 640 1005 b 810 722 989 1005 979 748 b 810 722 810 722 810 722 b 783 691 794 720 783 707 l 783 689 b 814 658 783 672 797 658 l 877 658 l 877 298 b 1112 -21 877 87 982 -21 b 1347 298 1241 -21 1347 87 b 1317 329 1347 315 1333 329 z "},"":{"ha":1136,"x_min":0,"x_max":0,"o":"m 1077 329 b 1047 298 1061 329 1047 315 b 961 99 1047 159 1011 99 b 877 277 912 99 877 138 l 877 658 l 1046 658 b 1077 689 1063 658 1077 672 b 1046 720 1077 706 1063 720 l 877 720 l 877 940 b 846 971 877 957 863 971 l 838 971 b 808 950 824 971 813 963 b 572 720 770 846 683 720 l 344 720 l 344 940 b 312 971 344 957 330 971 l 304 971 b 274 950 291 971 279 963 b 36 722 237 846 147 738 b 10 691 21 720 10 707 l 10 689 b 41 658 10 672 24 658 l 104 658 l 104 298 b 339 -21 104 87 209 -21 b 573 298 468 -21 573 87 b 543 329 573 315 560 329 b 513 298 527 329 513 315 b 427 99 513 159 477 99 b 344 277 378 99 344 138 l 344 658 l 637 658 l 637 298 b 872 -21 637 87 743 -21 b 1107 298 1002 -21 1107 87 b 1077 329 1107 315 1094 329 z "},"":{"ha":1015,"x_min":0,"x_max":0,"o":"m 769 762 b 902 878 842 762 902 814 b 769 995 902 943 842 995 b 635 878 695 995 635 943 b 769 762 635 814 695 762 z m 907 236 l 907 689 b 876 720 907 706 893 720 l 344 720 l 344 940 b 312 971 344 957 330 971 l 304 971 b 274 950 291 971 279 963 b 36 722 237 846 147 738 b 10 691 21 720 10 707 l 10 689 b 41 658 10 672 24 658 l 104 658 l 104 298 b 339 -21 104 87 209 -21 b 573 298 468 -21 573 87 b 543 329 573 315 560 329 b 513 298 527 329 513 315 b 427 99 513 159 477 99 b 344 277 378 99 344 138 l 344 658 l 573 658 b 667 529 627 658 667 635 l 667 236 b 573 20 667 -14 573 66 b 606 0 573 4 585 0 b 787 10 638 0 682 10 b 969 0 893 10 937 0 b 1001 20 990 0 1001 4 b 907 236 1001 66 907 -14 z "},"":{"ha":1549,"x_min":0,"x_max":0,"o":"m 1302 762 b 1436 878 1376 762 1436 814 b 1302 995 1436 943 1376 995 b 1169 878 1228 995 1169 943 b 1302 762 1169 814 1228 762 z m 1441 236 l 1441 689 b 1410 720 1441 706 1427 720 l 877 720 l 877 940 b 846 971 877 957 863 971 l 838 971 b 808 950 824 971 813 963 b 572 720 770 846 683 720 b 344 720 569 720 344 720 l 344 940 b 312 971 344 957 330 971 l 304 971 b 274 950 291 971 279 963 b 36 722 237 846 147 738 b 10 691 21 720 10 707 l 10 689 b 41 658 10 672 24 658 l 104 658 l 104 298 b 339 -21 104 87 209 -21 b 573 298 468 -21 573 87 b 543 329 573 315 560 329 b 513 298 527 329 513 315 b 427 99 513 159 477 99 b 344 277 378 99 344 138 l 344 658 l 637 658 l 637 298 b 872 -21 637 87 743 -21 b 1107 298 1002 -21 1107 87 b 1077 329 1107 315 1094 329 b 1047 298 1061 329 1047 315 b 961 99 1047 159 1011 99 b 877 277 912 99 877 138 l 877 658 l 1107 658 b 1201 529 1161 658 1201 635 l 1201 236 b 1107 20 1201 -14 1107 66 b 1140 0 1107 4 1118 0 b 1321 10 1172 0 1215 10 b 1503 0 1427 10 1471 0 b 1535 20 1524 0 1535 4 b 1441 236 1535 66 1441 -14 z "},"":{"ha":1486,"x_min":0,"x_max":0,"o":"m 1421 689 b 1390 720 1421 706 1407 720 l 888 720 b 1013 1002 892 888 932 1002 b 1087 854 1058 1002 1107 938 b 1189 763 1073 796 1125 763 b 1301 864 1251 763 1301 794 b 1005 1065 1301 972 1178 1065 b 648 720 786 1065 659 928 l 354 720 b 417 1002 354 888 364 1002 b 459 854 455 1002 476 938 b 553 763 448 796 500 763 b 656 864 605 763 656 794 b 411 1065 656 972 554 1065 b 114 720 228 1065 124 928 l 51 720 b 19 689 33 720 19 706 b 51 658 19 672 33 658 l 113 658 l 113 236 b 19 20 113 -14 19 66 b 52 0 19 4 31 0 b 233 10 84 0 128 10 b 415 0 339 10 383 0 b 447 20 436 0 447 4 b 353 236 447 66 353 -14 l 353 658 l 647 658 l 647 236 b 553 20 647 -14 553 66 b 586 0 553 4 564 0 b 767 10 618 0 661 10 b 949 0 873 10 917 0 b 981 20 970 0 981 4 b 887 236 981 66 887 -14 l 887 658 l 1087 658 b 1181 529 1140 658 1181 635 l 1181 31 b 1117 -282 1181 -154 1174 -282 b 1075 -134 1080 -282 1059 -218 b 981 -42 1087 -76 1035 -42 b 878 -144 929 -42 878 -74 b 1123 -344 878 -252 980 -344 b 1421 0 1315 -344 1421 -225 z "},"":{"ha":1403,"x_min":0,"x_max":0,"o":"m 1067 741 b 887 665 1000 741 937 713 l 887 864 b 538 1065 887 972 742 1065 b 114 720 277 1065 128 928 l 53 720 b 22 689 36 720 22 706 b 53 658 22 672 36 658 l 113 658 l 113 236 b 19 20 113 -14 19 66 b 52 0 19 4 31 0 b 233 10 84 0 128 10 b 415 0 339 10 383 0 b 447 20 436 0 447 4 b 353 236 447 66 353 -14 l 353 658 l 523 658 b 554 689 540 658 554 672 b 523 720 554 706 540 720 l 354 720 b 510 1002 361 888 423 1002 b 647 756 624 1002 647 844 l 647 236 b 637 11 647 80 637 43 b 663 -21 637 -10 647 -21 b 767 63 699 -21 681 63 b 1067 -21 863 63 903 -21 b 1367 360 1233 -21 1367 150 b 1067 741 1367 571 1233 741 z m 1002 63 b 887 360 939 63 887 196 b 1002 658 887 524 939 658 b 1117 360 1065 658 1117 524 b 1002 63 1117 196 1065 63 z "},"ﬀ":{"ha":1089,"x_min":0,"x_max":0,"o":"m 945 1065 b 648 720 762 1065 657 928 l 354 720 b 417 1002 355 888 364 1002 b 459 854 455 1002 476 938 b 553 763 448 796 500 763 b 656 864 605 763 656 794 b 411 1065 656 972 554 1065 b 114 720 228 1065 124 928 l 51 720 b 19 689 33 720 19 706 b 51 658 19 672 33 658 l 113 658 l 113 236 b 19 20 113 -14 19 66 b 52 0 19 4 31 0 b 233 10 84 0 128 10 b 415 0 339 10 383 0 b 447 20 436 0 447 4 b 353 236 447 66 353 -14 l 353 658 l 647 658 l 647 236 b 553 20 647 -14 553 66 b 586 0 553 4 564 0 b 767 10 618 0 661 10 b 949 0 873 10 917 0 b 981 20 970 0 981 4 b 887 236 981 66 887 -14 l 887 658 l 1056 658 b 1087 689 1073 658 1087 672 b 1056 720 1087 706 1073 720 l 887 720 b 951 1002 888 888 898 1002 b 993 854 988 1002 1009 938 b 1087 763 982 796 1033 763 b 1190 864 1139 763 1190 794 b 945 1065 1190 972 1088 1065 z "},"ﬁ":{"ha":994,"x_min":0,"x_max":0,"o":"m 887 236 l 887 689 b 856 720 887 706 873 720 l 354 720 b 480 1002 358 888 398 1002 b 553 854 525 1002 573 938 b 655 763 540 796 591 763 b 767 864 718 763 767 794 b 472 1065 767 972 644 1065 b 114 720 252 1065 126 928 l 51 720 b 19 689 33 720 19 706 b 51 658 19 672 33 658 l 113 658 l 113 236 b 19 20 113 -14 19 66 b 52 0 19 4 31 0 b 233 10 84 0 128 10 b 415 0 339 10 383 0 b 447 20 436 0 447 4 b 353 236 447 66 353 -14 l 353 658 l 553 658 b 647 529 607 658 647 635 l 647 236 b 553 20 647 -14 553 66 b 586 0 553 4 564 0 b 767 10 618 0 661 10 b 949 0 873 10 917 0 b 981 20 970 0 981 4 b 887 236 981 66 887 -14 z "},"ﬂ":{"ha":994,"x_min":0,"x_max":0,"o":"m 887 236 l 887 864 b 538 1065 887 972 742 1065 b 114 720 277 1065 128 927 l 51 720 b 19 689 33 720 19 706 b 51 657 19 671 33 657 l 113 657 l 113 236 b 19 20 113 -15 19 65 b 52 0 19 4 31 0 b 233 10 84 0 128 10 b 415 0 339 10 383 0 b 447 20 436 0 447 4 b 353 236 447 65 353 -15 l 353 657 l 522 657 b 553 689 539 657 553 671 b 522 720 553 706 539 720 l 354 720 b 510 1002 361 888 423 1002 b 647 756 624 1002 647 843 l 647 236 b 553 20 647 -15 553 65 b 586 0 553 4 564 0 b 767 10 618 0 661 10 b 949 0 873 10 917 0 b 981 20 970 0 981 4 b 887 236 981 65 887 -15 z "},"ﬃ":{"ha":1528,"x_min":0,"x_max":0,"o":"m 1421 236 l 1421 689 b 1390 720 1421 706 1407 720 l 888 720 b 1013 1002 892 888 932 1002 b 1087 854 1058 1002 1107 938 b 1189 763 1073 796 1125 763 b 1301 864 1251 763 1301 794 b 1005 1065 1301 972 1178 1065 b 648 720 786 1065 659 928 l 354 720 b 417 1002 354 888 364 1002 b 459 854 455 1002 476 938 b 553 763 448 796 500 763 b 656 864 605 763 656 794 b 411 1065 656 972 554 1065 b 114 720 228 1065 124 928 l 51 720 b 19 689 33 720 19 706 b 51 658 19 672 33 658 l 113 658 l 113 236 b 19 20 113 -14 19 66 b 52 0 19 4 31 0 b 233 10 84 0 128 10 b 415 0 339 10 383 0 b 447 20 436 0 447 4 b 353 236 447 66 353 -14 l 353 658 l 647 658 l 647 236 b 553 20 647 -14 553 66 b 586 0 553 4 564 0 b 767 10 618 0 661 10 b 949 0 873 10 917 0 b 981 20 970 0 981 4 b 887 236 981 66 887 -14 l 887 658 l 1087 658 b 1181 529 1140 658 1181 635 l 1181 236 b 1087 20 1181 -14 1087 66 b 1119 0 1087 4 1098 0 b 1301 10 1151 0 1195 10 b 1483 0 1407 10 1451 0 b 1515 20 1504 0 1515 4 b 1421 236 1515 66 1421 -14 z "},"ﬆ":{"ha":1269,"x_min":0,"x_max":0,"o":"m 1211 329 b 1181 298 1195 329 1181 315 b 1095 99 1181 159 1145 99 b 1012 277 1046 99 1012 138 l 1012 658 l 1180 658 b 1211 689 1197 658 1211 672 b 1180 720 1211 706 1197 720 l 1012 720 l 1012 940 b 980 971 1012 957 998 971 l 972 971 b 942 950 959 971 947 963 b 913 886 934 928 924 907 b 687 1070 908 981 839 1070 b 474 731 506 1070 432 894 b 375 741 441 738 408 741 b 72 497 239 741 72 658 b 486 115 72 288 486 243 b 375 42 486 63 435 42 b 112 305 255 42 146 177 b 78 329 108 321 93 331 b 51 298 62 327 51 313 l 51 196 b 42 37 51 108 42 74 b 64 0 42 13 51 0 b 132 63 87 0 82 63 b 396 -21 197 63 229 -21 b 720 203 581 -21 720 42 b 284 601 720 419 284 469 b 375 679 284 650 327 679 b 465 548 434 679 479 629 b 577 444 456 497 493 444 b 678 548 649 444 678 502 b 621 663 678 592 657 632 b 678 1005 515 777 537 1005 b 705 722 884 1005 874 748 b 704 722 705 722 705 722 b 678 691 689 720 678 707 l 678 689 b 709 658 678 672 692 658 l 772 658 l 772 298 b 1007 -21 772 87 877 -21 b 1241 298 1136 -21 1241 87 b 1211 329 1241 315 1228 329 z "}}}
